<svg width="570" height="570" viewBox="0 0 570 570" fill="none" xmlns="http://www.w3.org/2000/svg">
<rect width="570" height="570" fill="#F9F9FF"/>
<path fill-rule="evenodd" clip-rule="evenodd" d="M285.203 106.883C419.409 129.427 513 206.027 513 328.328C513 474.92 396.731 322.607 316.558 408.074C236.386 493.542 65.577 495.965 57.4063 328.328C49.7575 171.4 150.997 84.338 285.203 106.883Z" fill="#E8FFEA"/>
<path fill-rule="evenodd" clip-rule="evenodd" d="M216.601 343.865L252.103 297.941L252.918 298.587C258.161 302.709 262.318 305.425 265.391 306.737L266.3 307.122C281.061 313.331 291.21 315.44 289.579 316.898L287.559 318.713C274.514 330.49 256.651 347.615 233.972 370.09C230.866 373.436 226.681 375.583 222.16 376.157L217.483 376.715C171.576 382.149 142.124 382.618 131.332 380.228C129.078 379.729 122.141 381.032 116.903 386.294C109.046 394.186 97.8103 413.196 95.9235 413.196C93.1804 413.196 95.7652 400.605 103.678 375.421L104.514 372.495C108.2 359.715 110.852 352.158 112.47 349.825C114.207 347.32 120.076 351.743 130.076 363.095L129.804 364.571C131.102 363.065 132.641 361.463 134.42 359.766L139.145 359.2C155.836 357.174 168.523 355.32 177.206 353.64L178.121 353.461C187.529 351.597 200.355 348.398 216.601 343.865Z" fill="#F9F9FF"/>
<path fill-rule="evenodd" clip-rule="evenodd" d="M437.676 296.289L450.875 306.236C453.409 308.142 455.266 310.815 456.172 313.855L458.672 322.23C459.849 324.763 458.82 327.773 456.339 329.055L451.677 332.514C448.679 334.061 445.024 332.385 444.236 329.101L441.612 319.768C441.612 319.768 430.489 316.388 429.009 303.149L437.676 296.289Z" fill="#F9F9FF"/>
<path fill-rule="evenodd" clip-rule="evenodd" d="M374.053 132.918C383.072 133.285 387.605 145.646 390.554 151.756C391.558 153.837 384.494 215.352 382.185 231.093C378.074 259.126 365.649 268.014 357.849 269.923C357.849 269.923 358.317 301.794 355.05 309.726C347.816 327.29 256.249 315.501 247.3 286.145C241.182 266.076 263.916 263.737 272.449 251.637C288.087 229.461 288.898 208.823 305.744 194.059C312.127 187.063 319.539 180.04 325.931 171.597L328.532 168.175C344.791 146.873 357.172 132.74 373.205 132.897L374.053 132.918Z" fill="#F9F9FF"/>
<path fill-rule="evenodd" clip-rule="evenodd" d="M328.828 186.239C327.334 186.959 325.149 187.183 324.37 185.72C321.924 181.125 314.44 180.494 311.26 184.613C314.313 183.564 317.87 182.562 320.599 184.286C321.359 184.765 322.015 185.438 322.664 186.103C323.746 187.211 324.809 188.3 326.298 188.446C327.406 188.555 328.46 188.089 329.509 187.625C330.635 187.127 331.756 186.631 332.929 186.852C334.233 187.097 335.146 188.134 336.06 189.171C336.972 190.205 337.883 191.239 339.181 191.49C340.243 191.695 341.311 191.314 342.369 190.936C343.551 190.514 344.721 190.096 345.859 190.506C347.217 190.995 347.838 192.395 348.459 193.796C349.077 195.19 349.696 196.585 351.041 197.086C351.838 197.383 352.699 197.276 353.549 197.11L354.392 196.938C356.379 196.542 358.525 196.507 360.342 197.401C361.904 198.17 363.135 199.761 363.235 201.459C363.276 201.092 363.312 200.726 363.343 200.362L363.658 198.294C361.856 196.179 359.024 194.982 356.25 195.167C355.775 195.198 355.299 195.268 354.825 195.337C353.911 195.471 352.999 195.604 352.092 195.466C350.714 195.256 349.315 194.084 349.547 192.71L349.568 192.562C349.821 190.262 346.738 188.943 344.369 189.136C343.866 189.178 343.35 189.245 342.831 189.312C340.856 189.568 338.836 189.831 337.285 188.695C336.686 188.257 336.222 187.642 335.764 187.034C335.122 186.183 334.489 185.343 333.504 185.012C332.415 184.647 331.309 185.03 330.235 185.54L329.879 185.713L328.828 186.239ZM311.647 202.235C312.675 203.615 314.792 202.842 316.426 202.245L316.511 202.214C320.892 200.616 326.172 201.863 329.374 205.254C331.129 207.112 333.727 206.593 336.416 206.055C338.663 205.606 340.974 205.143 342.911 206.045C343.817 206.466 344.658 207.179 345.481 207.877C346.991 209.157 348.444 210.389 350.136 209.691C353.345 208.369 357.283 209.074 359.861 211.388L359.852 212.118L359.84 213.726C357.279 211.16 353.132 210.329 349.78 211.71C348.088 212.408 346.635 211.176 345.125 209.896L345.125 209.896C344.302 209.198 343.461 208.485 342.555 208.064C340.618 207.162 338.307 207.624 336.06 208.074C333.371 208.612 330.773 209.131 329.018 207.272C325.88 203.95 320.747 202.686 316.419 204.141L315.555 204.45C314.014 204.997 312.214 205.493 311.291 204.254C308.38 200.346 302.534 198.976 298.189 201.184L298.75 199.064L299.007 198.946C303.296 197.057 308.838 198.464 311.647 202.235ZM301.671 219.661C300.061 220.32 297.976 221.174 296.896 219.834C294.928 217.394 290.431 217.216 283.407 219.301C283.944 219.665 285.329 219.629 287.037 219.585C290.255 219.501 294.619 219.388 296.617 221.865C297.587 223.068 299.367 222.503 300.886 221.898L301.737 221.555C306.006 219.935 311.183 221.002 314.447 224.201C316.272 225.991 318.848 225.372 321.515 224.732C323.743 224.196 326.034 223.646 328.004 224.472C328.926 224.858 329.793 225.538 330.643 226.204C332.201 227.425 333.7 228.6 335.364 227.839L335.595 227.737C337.482 226.941 341.104 228.282 344.388 229.498C346.777 230.383 348.986 231.201 350.217 231.081C342.604 226.602 337.746 224.845 335.642 225.808L335.475 225.878C333.877 226.49 332.427 225.353 330.921 224.173C330.071 223.507 329.204 222.827 328.283 222.441C326.312 221.615 324.021 222.165 321.793 222.7C319.126 223.341 316.55 223.96 314.725 222.17C311.395 218.905 306.072 217.861 301.755 219.627L301.671 219.661ZM316.594 293.601C318.525 294.84 321.026 296.445 322.812 295.564C325.967 294.009 331.653 295.389 339.869 299.707L340.66 300.127C339.854 300.275 338.046 299.719 335.817 299.034C331.618 297.742 325.923 295.992 322.618 297.621C321.014 298.412 318.834 297.2 317.008 296.047L315.985 295.397C311.163 292.438 304.65 291.439 299.601 292.835C297.983 293.509 295.729 292.72 293.253 291.853L293.253 291.853C291.568 291.264 289.78 290.638 288.019 290.412C285.848 290.133 284.73 290.301 283.748 290.447C282.763 290.595 281.916 290.721 280.281 290.356C279.017 290.073 276.997 289.19 274.221 287.706C269.3 285.343 260.581 285.629 255.992 287.271L255.744 287.357C250.838 288.979 250.879 287.202 255.812 285.352L256.186 285.214L256.481 285.113C261.724 283.367 271.435 283.557 276.517 286.817L276.617 286.882C278.548 288.121 281.049 289.726 282.836 288.845L282.968 288.786C284.218 288.272 287.141 288.281 288.047 288.341L288.214 288.355C291.265 288.693 291.929 288.97 292.654 289.498L293.173 289.892L293.47 290.006C294.572 290.436 295.742 290.943 296.979 291.53C297.49 291.484 298.078 291.35 298.773 291.101L299.068 290.999C304.311 289.253 311.411 290.277 316.493 293.537L316.594 293.601ZM293.877 235.035C295.02 236.374 297.226 235.521 298.929 234.862L299.018 234.827C303.584 233.062 309.216 234.106 312.739 237.37C314.67 239.16 317.395 238.542 320.216 237.901C322.573 237.366 324.997 236.815 327.082 237.641C328.057 238.028 328.974 238.708 329.874 239.374C331.466 240.554 333.001 241.691 334.691 241.078L334.868 241.008C337.094 240.045 342.233 241.803 350.287 246.281C348.985 246.401 346.647 245.583 344.12 244.699C340.646 243.483 336.814 242.142 334.818 242.937L334.574 243.039C332.813 243.801 331.227 242.626 329.579 241.405C328.68 240.739 327.762 240.059 326.788 239.672C324.703 238.846 322.279 239.397 319.922 239.932C317.101 240.573 314.376 241.191 312.444 239.401C308.992 236.202 303.515 235.136 298.999 236.756L298.098 237.098C296.491 237.703 294.609 238.268 293.583 237.066C291.469 234.588 286.852 234.701 283.448 234.785C281.64 234.83 280.175 234.866 279.607 234.501C287.038 232.417 291.795 232.595 293.877 235.035ZM292.718 251.582C290.758 252.241 288.22 253.095 286.905 251.755C284.51 249.315 279.037 249.137 270.486 251.221C271.14 251.586 272.826 251.55 274.906 251.506C278.822 251.422 284.134 251.309 286.566 253.786C287.747 254.989 289.913 254.424 291.762 253.819L292.798 253.476C297.993 251.856 304.296 252.922 308.268 256.122C310.49 257.912 313.625 257.293 316.871 256.652C319.583 256.117 322.372 255.567 324.77 256.393C325.891 256.779 326.947 257.459 327.982 258.125C329.878 259.346 331.702 260.521 333.728 259.76L334.01 259.658C336.305 258.862 340.715 260.203 344.711 261.419C347.619 262.304 350.309 263.122 351.806 263.002C342.541 258.523 336.628 256.766 334.067 257.729L333.863 257.799C331.918 258.411 330.153 257.274 328.32 256.094C327.286 255.428 326.23 254.748 325.109 254.362C322.71 253.536 319.921 254.086 317.209 254.621C313.964 255.262 310.828 255.881 308.606 254.091C304.553 250.826 298.074 249.782 292.82 251.548L292.718 251.582ZM277.5 264.675C278.974 266.015 281.821 265.161 284.019 264.502L284.133 264.468C290.026 262.702 297.292 263.746 301.838 267.011C304.33 268.801 307.846 268.182 311.486 267.541C314.528 267.006 317.655 266.455 320.345 267.282C321.603 267.668 322.787 268.348 323.947 269.014C326.002 270.194 327.982 271.331 330.163 270.719L330.392 270.648C333.264 269.685 339.895 271.443 350.287 275.922C348.607 276.042 345.591 275.224 342.33 274.339C337.848 273.123 332.902 271.782 330.328 272.578L330.012 272.68C327.74 273.441 325.694 272.266 323.567 271.045C322.407 270.379 321.223 269.699 319.965 269.313C317.276 268.487 314.148 269.037 311.107 269.572C307.466 270.213 303.95 270.832 301.458 269.042C297.003 265.842 289.936 264.776 284.109 266.396L282.947 266.739C280.873 267.344 278.444 267.909 277.12 266.706C274.392 264.228 268.435 264.342 264.043 264.426C261.711 264.47 259.82 264.506 259.087 264.141C268.676 262.057 274.814 262.235 277.5 264.675ZM277.179 275.902C274.981 276.561 272.135 277.414 270.66 276.075C267.974 273.635 261.836 273.457 252.247 275.541C252.98 275.906 254.871 275.87 257.203 275.825C261.595 275.742 267.552 275.628 270.28 278.106C271.604 279.308 274.033 278.743 276.107 278.138L277.269 277.796C282.719 276.28 289.256 277.115 293.724 279.849C295.094 280.943 297.478 280.806 300.097 280.655H300.098C301.879 280.553 303.77 280.444 305.525 280.712C307.689 281.043 308.718 281.512 309.621 281.924C310.527 282.337 311.307 282.692 312.979 282.791C314.919 282.906 319.535 281.914 319.535 281.914C324.916 280.999 333.219 283.678 337.178 286.521L337.393 286.672C341.767 289.655 342.132 287.776 337.558 284.49L337.303 284.311C332.744 281.188 323.357 278.695 317.573 280.427L317.459 280.462C315.261 281.121 312.414 281.974 310.94 280.635C309.912 279.701 306.553 278.792 305.905 278.681C302.482 278.098 302.018 278.28 300.979 278.689C300.895 278.722 300.808 278.756 300.715 278.792L300.398 278.82C299.22 278.929 297.955 279.094 296.605 279.317C296.126 279.132 295.598 278.841 294.998 278.41L294.743 278.231C290.184 275.108 283.077 274.135 277.293 275.867L277.179 275.902Z" fill="#00A446"/>
<path fill-rule="evenodd" clip-rule="evenodd" d="M371.143 142.173C383.965 142.217 394.085 153.095 393.22 165.901C393.22 165.901 378.268 230.948 385.846 254.069C388.778 263.014 431.108 290.848 429.319 293.707L423.346 308.019C421.223 311.407 356.252 267.947 356.252 267.947C350.019 262.999 348.86 164.622 348.86 164.622C348.737 152.232 358.764 142.129 371.143 142.173Z" fill="#F9F9FF"/>
<path d="M438.443 296.289L430.807 312.011L430.655 312.431C430.019 314.06 427.591 315.057 427.279 315.137L427.233 315.137L422.724 312.469C422.208 312.035 421.925 309.601 422.471 307.337L422.599 306.861C422.599 306.861 426.174 294.304 429.135 291.133C430.862 289.284 440.834 291.133 438.443 296.289Z" fill="#F9F9FF"/>
<path fill-rule="evenodd" clip-rule="evenodd" d="M329.672 441.279H311.444C311.444 441.279 332.837 385.738 332.837 371.163C332.837 366.642 316.02 373.453 318.46 366.642C321.814 357.277 333.422 340.529 330.563 332.122C327.573 323.33 316.421 320.145 306.709 316.582C304.848 315.899 338.796 318.256 348.107 310.849C360.39 301.079 350.417 279.501 353.716 287.109C357.696 296.288 383.557 319.316 378.431 344.253C373.437 368.546 329.672 441.279 329.672 441.279Z" fill="#F9F9FF"/>
<path fill-rule="evenodd" clip-rule="evenodd" d="M323.353 451.989L321.463 451.362C321.38 451.335 321.37 451.221 321.447 451.179L323.252 450.199V447.952C323.252 447.866 323.353 447.82 323.418 447.877L324.91 449.188L327.383 447.886C327.471 447.84 327.565 447.936 327.518 448.023L326.116 450.581L328.786 453.371C328.856 453.444 328.784 453.564 328.686 453.536L325.008 452.475L323.54 455.062C323.489 455.151 323.353 455.115 323.353 455.012V453.69V451.989Z" fill="#00A446"/>
<path fill-rule="evenodd" clip-rule="evenodd" d="M274.786 331.897L274.784 331.899L274.783 331.9L274.782 331.901L274.782 331.901C273.301 333.474 271.821 335.048 270.277 336.557C267.387 339.383 264.469 342.193 261.402 344.821C257.598 348.082 253.699 351.242 249.712 354.276C245.201 357.709 240.581 361.003 235.94 364.26C235.696 364.431 235.453 364.604 235.21 364.776L235.202 364.781C232.835 366.461 230.469 368.138 227.428 368.657C226.56 368.805 225.748 369.24 224.93 369.678L224.93 369.679C224.279 370.028 223.625 370.378 222.937 370.587C218.194 372.025 213.426 373.394 208.628 374.637C205.683 375.4 202.675 375.943 199.675 376.466C197.807 376.792 187.111 378.492 179.996 379.524C172.88 380.557 149.347 380.557 143.472 380.435C140.175 380.366 136.878 380.252 133.583 380.126L133.413 380.12C132.741 380.096 132.028 380.07 131.444 379.806C128.208 378.339 125.704 379.936 123.166 381.555L122.983 381.671C119.651 383.793 117.612 386.987 115.597 390.257C114.527 391.994 113.393 393.692 112.258 395.39L112.258 395.391C111.038 397.218 109.817 399.045 108.676 400.921C107.166 403.405 105.819 405.99 104.473 408.573C104.231 409.037 103.989 409.502 103.746 409.965C101.967 413.362 99.2983 415.337 95.4692 416.068C93.5661 416.431 91.9358 415.866 90.3095 415.303L90.3093 415.303C89.7066 415.094 89.1045 414.885 88.4892 414.724C87.2849 414.408 86.3141 411.154 86.7436 409.867C87.9972 406.108 89.2532 402.35 90.5093 398.593L90.5095 398.592L90.5098 398.591L90.5128 398.582L90.5132 398.581C93.1373 390.731 95.7614 382.881 98.3627 375.023C100.18 369.532 101.955 364.028 103.729 358.523L103.732 358.515C104.232 356.964 104.732 355.412 105.233 353.861C105.472 353.121 105.7 352.377 105.927 351.633L105.927 351.632C106.303 350.399 106.68 349.165 107.111 347.951C107.252 347.553 107.836 347.062 108.233 347.046C111.104 346.931 113.861 347.635 116.48 348.709C121.431 350.741 125.241 354.168 128.037 358.73C128.779 359.94 130.073 360.375 131.706 360.087C132.493 359.948 133.288 359.843 134.082 359.738L134.083 359.738L134.083 359.738L134.084 359.738L134.085 359.737L134.085 359.737L134.086 359.737L134.086 359.737C135.298 359.577 136.509 359.417 137.693 359.136C140.328 358.511 142.995 358.49 145.662 358.469C147.378 358.455 149.095 358.441 150.802 358.266C151.975 358.146 153.155 358.078 154.334 358.009L154.335 358.009C155.91 357.917 157.484 357.826 159.042 357.611C161.874 357.222 164.693 356.731 167.511 356.239L167.512 356.239L167.514 356.239L167.515 356.239L167.516 356.239L167.518 356.239L167.519 356.238L167.52 356.238C168.857 356.005 170.194 355.772 171.533 355.55C172.614 355.371 173.697 355.201 174.78 355.032L174.781 355.032L174.782 355.031L174.783 355.031L174.784 355.031L174.785 355.031L174.787 355.031L174.788 355.031C176.881 354.703 178.974 354.376 181.053 353.976C183.712 353.466 186.35 352.844 188.987 352.221L189.01 352.216C189.321 352.143 189.631 352.069 189.942 351.996C192.73 351.34 195.514 350.663 198.297 349.985C199.467 349.701 200.636 349.416 201.806 349.133C201.858 349.12 201.91 349.107 201.963 349.094L202.06 349.069L202.18 349.038C202.238 349.023 202.297 349.008 202.355 348.994C202.292 348.96 202.228 348.927 202.164 348.894L202.163 348.893C202.025 348.822 201.887 348.751 201.756 348.67C201.351 348.42 200.933 348.183 200.516 347.947L200.516 347.947C199.564 347.407 198.611 346.868 197.8 346.165C195.977 344.583 196.6 341.956 198.917 341.256C200.684 340.722 202.504 340.187 204.328 340.064C206.785 339.899 209.023 339.083 211.264 338.267C212.164 337.938 213.065 337.61 213.981 337.324C216.141 336.648 217.437 335.377 218.521 333.432C219.044 332.495 219.809 331.7 220.578 330.902C221.119 330.34 221.662 329.777 222.123 329.161C224.511 325.968 226.834 322.724 229.095 319.44C229.576 318.741 229.962 317.978 230.348 317.215C230.643 316.631 230.938 316.047 231.277 315.491C232.07 314.186 232.878 312.866 233.858 311.704L233.987 311.551C236.234 308.886 238.489 306.213 240.933 303.734C242.266 302.382 243.737 301.168 245.209 299.953C245.904 299.379 246.599 298.805 247.279 298.217C247.623 297.92 247.953 297.598 248.242 297.248C248.738 296.648 248.942 296.149 248.194 295.439C247.999 295.255 247.803 295.07 247.606 294.886L247.606 294.886C245.652 293.048 243.68 291.194 242.612 288.651C242.5 288.385 242.387 288.118 242.274 287.852L242.274 287.851L242.274 287.851L242.274 287.851L242.274 287.851L242.274 287.851L242.274 287.851L242.273 287.851C241.416 285.827 240.551 283.785 240.063 281.666C239.406 278.814 239.671 275.909 240.522 273.035C241.711 269.013 244.203 265.965 247.577 263.777C249.658 262.428 251.848 261.248 254.039 260.068L254.039 260.067L254.04 260.067C255.663 259.193 257.287 258.318 258.867 257.373C260.089 256.643 261.134 255.581 262.153 254.545C262.251 254.446 262.348 254.347 262.445 254.249C267.035 249.605 270.233 243.986 273.42 238.388L273.42 238.388C273.758 237.793 274.097 237.198 274.437 236.605C277.517 231.231 280.281 225.669 283.035 220.116C283.829 218.517 284.509 216.862 285.189 215.206L285.189 215.206C285.79 213.742 286.391 212.279 287.071 210.853C287.608 209.726 288.271 208.661 288.934 207.594C289.421 206.81 289.908 206.026 290.346 205.217C290.817 204.348 291.247 203.455 291.676 202.562L291.676 202.562L291.676 202.562L291.676 202.562L291.676 202.562L291.677 202.562L291.677 202.561L291.677 202.561C292.327 201.209 292.977 199.859 293.768 198.595C294.332 197.692 295.152 196.947 295.97 196.203C296.313 195.892 296.655 195.581 296.979 195.258C297.382 194.856 297.792 194.461 298.202 194.067C298.63 193.655 299.058 193.243 299.478 192.823C300.218 192.083 300.949 191.332 301.658 190.562C303.021 189.083 304.391 187.611 305.761 186.138L305.763 186.136L305.764 186.136L305.764 186.135L305.765 186.134L305.766 186.134L305.766 186.133L305.767 186.132L305.767 186.132C309.147 182.5 312.526 178.868 315.794 175.138C319.623 170.766 323.267 166.223 326.845 161.641C328.268 159.819 329.551 157.887 330.833 155.955L330.834 155.954C331.405 155.094 331.976 154.234 332.559 153.384C332.569 153.37 332.578 153.355 332.586 153.341C332.598 153.321 332.609 153.301 332.62 153.281C332.629 153.264 332.638 153.247 332.646 153.23C332.685 153.155 332.724 153.081 332.778 153.02C333.705 152 334.622 150.969 335.539 149.939C337.692 147.52 339.845 145.101 342.122 142.806C345.502 139.401 349.374 136.578 353.576 134.226C354.217 133.868 354.835 133.461 355.452 133.054L355.452 133.054L355.452 133.054C356.425 132.414 357.395 131.774 358.449 131.329C358.698 131.223 358.949 131.115 359.201 131.007C361.216 130.142 363.328 129.234 365.407 129.192C369.795 129.102 374.357 129.151 378.04 132.253C378.738 132.841 378.924 132.702 378.99 131.916C379.053 131.166 379.18 130.393 379.307 129.62L379.307 129.619V129.619C379.604 127.818 379.901 126.015 379.384 124.491C379.071 123.569 378.962 122.639 378.853 121.717V121.717C378.731 120.674 378.609 119.641 378.196 118.643C376.815 115.305 375.582 111.905 374.35 108.506C374.164 107.994 373.978 107.483 373.792 106.971C373.406 105.91 373.093 104.796 372.95 103.68C372.848 102.883 372.813 102.077 372.779 101.271L372.779 101.27C372.744 100.442 372.708 99.6148 372.6 98.797C372.213 95.888 373.221 93.332 374.234 90.7658L374.235 90.7631C374.419 90.2955 374.604 89.8275 374.78 89.357C376.932 83.6152 380.963 79.2728 385.315 75.1949C389.062 71.6839 395.269 70.5793 400.289 69.7135C402.143 69.3937 415.158 69.0878 422.031 68.9262C424.273 68.8735 425.862 68.8362 426.196 68.8188C427.551 68.7479 428.469 68.1173 429.387 67.4403C431.282 66.0429 431.769 63.8757 432.248 61.743C432.295 61.5328 432.342 61.323 432.39 61.1142C432.402 61.0634 432.413 61.0138 432.424 60.9653C432.547 60.4062 432.634 60.0142 433.475 60.0424C436.281 60.1367 437.725 61.9695 439.099 64.0638C440.647 66.4222 441.9 68.8813 442.331 71.6924C442.855 75.1152 442.573 78.2946 440.139 81.1133C438.16 83.4058 435.856 85.1578 433.252 86.6281C432.907 86.8233 432.688 87.8568 432.88 88.2983C434.842 92.8228 434.987 97.5925 434.796 102.381C434.749 103.543 434.561 104.699 434.373 105.855L434.373 105.856C434.194 106.952 434.016 108.048 433.958 109.149C433.791 112.309 434.437 115.348 435.705 118.287C436.564 120.28 435.961 122.168 434.519 123.735C434.272 124.004 433.964 124.228 433.659 124.451C433.229 124.764 432.805 125.074 432.563 125.496C432.015 126.451 431.634 127.6 431.545 128.696C431.477 129.534 431.567 130.383 431.657 131.235L431.657 131.235C431.713 131.764 431.769 132.293 431.787 132.821C431.858 134.855 431.085 136.594 430.042 138.33C428.154 141.471 425.663 143.782 422.047 144.539C418.949 145.187 415.732 145.226 412.741 144.206C409.344 143.048 406.033 141.567 402.838 139.928C401.93 139.463 401.212 138.626 400.494 137.791C400.173 137.417 399.851 137.043 399.513 136.703C399.013 136.199 398.76 136.053 398.095 136.757C395.72 139.273 393.993 142.131 392.598 145.286C391.827 147.028 392.327 148.459 392.859 149.984L392.921 150.164C392.971 150.309 393.022 150.454 393.073 150.599C393.81 152.71 394.544 154.81 394.487 157.12C394.459 158.262 394.481 159.407 394.503 160.552V160.553V160.554V160.555V160.557V160.558V160.559V160.561C394.538 162.374 394.573 164.186 394.409 165.981C394.233 167.901 393.802 169.798 393.371 171.694C393.197 172.458 393.024 173.22 392.867 173.985C392.701 174.796 392.538 175.608 392.375 176.419L392.375 176.421C391.882 178.878 391.389 181.336 390.801 183.77C390.528 184.896 390.154 185.997 389.779 187.098L389.779 187.098L389.779 187.098L389.779 187.099L389.779 187.099L389.779 187.099L389.779 187.099L389.779 187.1C389.472 188.001 389.165 188.903 388.914 189.819C388.625 190.873 388.333 191.927 388.04 192.981L388.034 193.004C386.888 197.131 385.741 201.259 384.814 205.434C384.019 209.01 383.561 212.689 383.294 216.346C383.127 218.633 383.152 220.932 383.178 223.233V223.233V223.234V223.234V223.234V223.235V223.235V223.235C383.191 224.508 383.205 225.78 383.187 227.051C383.173 228.011 383.123 228.971 383.073 229.93L383.073 229.932V229.933V229.933V229.934V229.935V229.935V229.936V229.937C383.01 231.156 382.946 232.375 382.957 233.593C382.961 234.08 382.964 234.568 382.967 235.055C382.989 238.278 383.01 241.507 383.293 244.709C383.576 247.904 384.182 251.087 384.882 254.223C385.458 256.798 387.223 258.788 388.976 260.655C389.888 261.626 390.899 262.503 391.911 263.381L391.911 263.381C392.619 263.995 393.327 264.609 394.001 265.255C394.463 265.698 394.879 266.192 395.295 266.686L395.295 266.686L395.295 266.686C395.812 267.3 396.328 267.912 396.93 268.425C398.898 270.098 400.899 271.733 402.9 273.367C404.418 274.607 405.936 275.846 407.44 277.103C408.788 278.23 410.116 279.381 411.443 280.532L411.445 280.534L411.447 280.536C412.789 281.699 414.131 282.862 415.494 284C417.357 285.557 419.247 287.092 421.22 288.503C422.15 289.167 423.123 289.769 424.096 290.372L424.096 290.372L424.096 290.372C425.103 290.995 426.109 291.619 427.067 292.31C428.217 293.14 429.108 292.673 429.995 292.208C430.301 292.048 430.606 291.888 430.92 291.782C433.477 290.919 435.499 291.245 436.458 293.703C436.65 294.195 436.943 294.638 437.238 295.084C437.775 295.895 438.318 296.714 438.271 297.858C438.256 298.217 439.029 298.644 439.691 299.009C439.761 299.048 439.83 299.086 439.896 299.123C439.98 299.17 440.06 299.215 440.134 299.259C442.082 300.408 444.053 301.518 446.025 302.624C446.445 302.861 446.881 303.076 447.316 303.292C448.152 303.706 448.988 304.12 449.715 304.677C450.456 305.245 451.128 305.903 451.801 306.56C452.475 307.219 453.149 307.878 453.892 308.447C455.421 309.618 456.289 311.231 457.151 312.833L457.151 312.833C457.467 313.421 457.783 314.008 458.131 314.572C459.091 316.128 459.645 318.037 459.964 319.862C460.395 322.322 460.57 324.852 460.559 327.351C460.555 328.395 459.922 329.516 459.34 330.457C458.714 331.471 457.775 331.616 456.869 330.636C456.795 330.555 456.691 330.503 456.587 330.45C456.538 330.426 456.49 330.401 456.445 330.374C456.437 330.445 456.43 330.515 456.422 330.586C456.409 330.709 456.396 330.832 456.379 330.955C456.321 331.375 456.274 331.798 456.228 332.222C456.115 333.264 456.001 334.306 455.709 335.296C455.513 335.959 454.662 336.834 454.071 336.863C453.618 336.884 453.141 336.462 452.669 336.045C452.48 335.877 452.291 335.71 452.105 335.573C451.923 335.439 451.768 335.264 451.616 335.093L451.567 335.038C451.472 334.931 451.387 334.814 451.303 334.698C451.265 334.646 451.228 334.594 451.189 334.543L451.162 334.601L451.105 334.723L451.102 334.73C451.081 334.776 451.06 334.821 451.038 334.866C450.999 334.951 450.958 335.035 450.916 335.119C450.831 335.286 450.756 335.465 450.682 335.645C450.515 336.047 450.347 336.45 450.059 336.724C448.944 337.785 447.446 337.372 446.987 335.882C446.748 335.107 446.549 334.319 446.351 333.532C446.076 332.44 445.801 331.35 445.42 330.298C445.263 329.863 445.133 329.421 445.003 328.978C444.623 327.682 444.243 326.384 443.176 325.293C442.407 324.507 441.938 323.423 441.47 322.344L441.47 322.344C441.288 321.924 441.106 321.504 440.907 321.103C439.71 318.692 437.732 317.116 435.444 315.844C434.822 315.498 434.203 315.117 433.663 314.658C432.464 313.639 431.633 314.194 430.904 315.231C429.699 316.945 427.701 317.576 425.843 316.589C422.995 315.076 420.67 313.09 419.896 309.688C419.753 309.058 418.824 308.503 418.143 308.118C416.095 306.963 414.034 305.83 411.974 304.696L411.973 304.696L411.972 304.695L411.971 304.695L411.97 304.694L411.969 304.694L411.968 304.693L411.967 304.692C408.546 302.811 405.126 300.929 401.762 298.949C397.567 296.481 393.48 293.824 389.396 291.17L389.394 291.168L389.374 291.155L389.292 291.102L388.617 290.663L388.162 290.368C381.719 286.184 375.301 281.963 368.882 277.742L368.878 277.74C367.626 276.916 366.373 276.092 365.12 275.269C363.712 274.343 362.313 273.403 360.915 272.463C359.939 271.807 358.964 271.151 357.986 270.501C357.595 270.241 357.181 270.006 356.757 269.806C355.491 269.208 355.119 269.424 355.018 270.781C355.017 270.796 355.016 270.81 355.016 270.825C355.016 270.835 355.016 270.844 355.016 270.854L355.017 270.876C355.017 270.895 355.018 270.914 355.017 270.933C354.99 272.843 354.964 274.753 354.937 276.663C354.863 281.904 354.79 287.146 354.712 292.387C354.687 294.063 355.565 295.347 356.43 296.613L356.43 296.613L356.434 296.618C356.608 296.873 356.781 297.127 356.947 297.383C359.997 302.108 363.111 306.793 366.256 311.456C367.119 312.736 368.013 313.994 368.907 315.253C370.256 317.152 371.605 319.051 372.846 321.019C373.474 322.017 373.85 323.176 374.226 324.334C374.391 324.842 374.555 325.35 374.742 325.845C374.827 326.071 374.916 326.295 375.006 326.52L375.006 326.52L375.006 326.521L375.006 326.521L375.006 326.521L375.006 326.521L375.007 326.522L375.007 326.522C375.248 327.126 375.489 327.731 375.641 328.357C376.865 333.426 376.313 338.456 375.103 343.43C375.022 343.763 374.941 344.097 374.86 344.43C374.108 347.538 373.353 350.659 372.256 353.647C371.376 356.043 370.278 358.358 369.179 360.673L369.178 360.675C368.649 361.79 368.12 362.905 367.616 364.029C366.734 365.993 365.882 367.97 365.04 369.951C363.611 373.31 362.19 376.671 360.786 380.04C360.281 381.253 359.792 382.473 359.304 383.694L359.302 383.698L359.3 383.703L359.298 383.707L359.296 383.712L359.295 383.716L359.293 383.721L359.291 383.725L359.291 383.725L359.291 383.726L359.291 383.726L359.291 383.726L359.29 383.726L359.29 383.727L359.29 383.727C358.304 386.19 357.318 388.652 356.196 391.052C354.581 394.509 352.786 397.883 350.993 401.255L350.677 401.848L350.444 402.287L350.221 402.707C349.1 404.819 347.952 406.915 346.804 409.012C345.692 411.042 344.581 413.072 343.494 415.116C342.504 416.979 341.54 418.855 340.576 420.732L340.575 420.735L340.574 420.737C339.544 422.744 338.513 424.75 337.45 426.74C335.941 429.566 334.358 432.355 332.729 435.114C331.374 437.411 331.766 438.481 333.335 440.596C335.035 442.889 337.678 443.655 340.299 444.254C347.486 445.896 354.688 447.47 361.89 449.045L362.26 449.126C362.985 449.284 363.72 449.402 364.455 449.521L364.455 449.521L364.456 449.521L364.456 449.521L364.457 449.521L364.457 449.521L364.458 449.521L364.458 449.521C365.283 449.654 366.107 449.787 366.919 449.977C370.977 450.927 373.013 453.912 374.099 457.615C374.793 459.985 374.998 462.528 373.111 464.497C372.398 465.241 371.097 465.793 370.061 465.797C356.717 465.842 343.372 465.849 330.027 465.856C321.623 465.861 313.219 465.866 304.815 465.88C303.836 465.881 303.765 465.587 303.691 464.726C303.615 463.85 303.459 462.975 303.304 462.102C303.075 460.819 302.847 459.54 302.875 458.263C303.011 452.128 305.161 446.633 308.922 441.809C309.193 441.461 309.633 441.23 310.068 441.003C310.551 440.75 311.027 440.5 311.255 440.098C312.351 438.158 313.292 436.096 314.013 433.985C315.167 430.605 316.314 427.193 317.055 423.707C317.395 422.106 317.886 420.554 318.378 419.001L318.379 419C318.99 417.069 319.602 415.136 319.926 413.103C320.267 410.957 321.159 408.89 322.046 406.835L322.046 406.834L322.046 406.833C322.321 406.196 322.596 405.56 322.853 404.924C323.731 402.75 324.639 400.587 325.546 398.424C326.956 395.063 328.366 391.702 329.667 388.3C330.595 385.875 331.363 383.389 332.132 380.903C332.571 379.485 333.01 378.066 333.479 376.657C334.47 373.678 335.477 370.701 336.613 367.775C336.868 367.118 336.725 367.107 336.367 367.078C336.3 367.073 336.226 367.067 336.145 367.057C331.354 366.42 326.633 366.476 322.164 368.609C321.185 369.076 320.496 368.979 319.848 368.165C319.185 367.334 319.53 366.728 320.116 365.965C323.609 361.416 325.778 356.236 327.442 350.771C327.616 350.198 327.796 349.627 327.975 349.056C329.056 345.612 330.134 342.178 330.104 338.518C330.082 335.745 329.399 333.258 327.493 330.939C327.074 330.43 326.69 329.896 326.307 329.365L326.307 329.365L326.307 329.365L326.307 329.365L326.306 329.364L326.306 329.364L326.306 329.364L326.306 329.363C325.162 327.776 324.034 326.211 322.072 325.392C321.079 324.978 320.099 324.531 319.119 324.085L319.118 324.084L319.117 324.084L319.117 324.084L319.116 324.083L319.116 324.083L319.115 324.083L319.115 324.083L319.114 324.083C318.096 323.618 317.077 323.154 316.043 322.726C315.257 322.4 314.472 322.072 313.686 321.743L313.685 321.742L313.685 321.742L313.684 321.742L313.683 321.742L313.683 321.742L313.682 321.742L313.682 321.741L313.681 321.741C310.586 320.446 307.489 319.151 304.331 318.031C302.413 317.352 300.427 316.865 298.44 316.379L298.44 316.379L298.439 316.379L298.439 316.378L298.439 316.378L298.439 316.378L298.438 316.378L298.438 316.378L298.437 316.378C297.534 316.157 296.631 315.936 295.735 315.696C295.558 315.649 295.384 315.594 295.21 315.538L295.105 315.505L295.061 315.491L294.995 315.471L294.947 315.456L294.915 315.446C294.874 315.434 294.833 315.421 294.791 315.41C292.749 314.827 290.966 314.928 289.579 316.898C288.971 317.763 288.135 318.467 287.26 319.204C287.086 319.351 286.91 319.499 286.735 319.649C283.436 322.903 280.283 326.151 277.143 329.412C276.355 330.23 275.575 331.058 274.796 331.886L274.795 331.888L274.793 331.889L274.791 331.891L274.789 331.893L274.788 331.895L274.786 331.897ZM351.999 274.186C352.099 273.463 352.243 272.745 352.386 272.027L352.386 272.027L352.386 272.026L352.386 272.025L352.386 272.024L352.386 272.024L352.387 272.023L352.387 272.022C352.562 271.144 352.738 270.265 352.833 269.378L352.86 269.129C353.066 267.224 353.274 265.291 353.138 263.395C353.068 262.413 352.807 261.448 352.545 260.481C352.333 259.697 352.12 258.912 352.009 258.116C351.422 253.93 350.894 249.733 350.487 245.527C350.133 241.869 349.898 238.2 349.662 234.532C349.629 234.018 349.596 233.504 349.562 232.989C349.324 229.327 349.103 225.663 348.96 221.996C348.823 218.48 348.755 214.962 348.687 211.444L348.672 210.643L348.658 209.965C348.654 209.744 348.729 209.522 348.805 209.299C348.854 209.157 348.902 209.014 348.931 208.869C348.963 208.707 349.002 208.543 349.041 208.379C349.149 207.927 349.258 207.471 349.218 207.031C349.174 206.547 349.065 206.064 348.956 205.583C348.809 204.93 348.662 204.28 348.678 203.632C348.786 199.333 348.98 195.037 349.174 190.741L349.212 189.916L349.26 188.839C349.301 187.916 349.42 186.992 349.561 186.078C349.958 183.495 350.372 180.913 350.785 178.332L350.957 177.256L351.074 176.526C351.108 176.316 351.153 176.108 351.198 175.9C351.219 175.803 351.239 175.706 351.259 175.61C351.271 175.717 351.287 175.825 351.302 175.932C351.334 176.163 351.367 176.394 351.371 176.625C351.467 181.466 351.557 186.307 351.646 191.148L351.679 192.911C351.709 194.533 351.74 196.154 351.771 197.776L351.772 197.803C351.845 201.651 351.919 205.5 351.98 209.349C352.02 211.903 352.051 214.458 352.083 217.013L352.083 217.021C352.14 221.665 352.197 226.31 352.307 230.953C352.389 234.417 352.609 237.884 352.916 241.337C353.142 243.87 353.471 246.394 353.8 248.918C353.905 249.719 354.009 250.519 354.11 251.32C354.252 252.439 354.406 253.557 354.56 254.675L354.56 254.677C354.829 256.63 355.099 258.584 355.3 260.544C355.556 263.036 356.755 265.054 358.48 266.651C359.74 267.817 361.16 268.81 362.579 269.803L362.579 269.803C363.14 270.196 363.7 270.588 364.251 270.99C365.401 271.832 366.546 272.68 367.692 273.529C370.565 275.659 373.439 277.789 376.393 279.802C379.032 281.6 381.748 283.285 384.464 284.971L384.465 284.971L384.466 284.972L384.467 284.972L384.467 284.973L384.468 284.973L384.469 284.974L384.47 284.974C385.783 285.789 387.097 286.604 388.401 287.432C389.657 288.229 390.908 289.033 392.159 289.838L392.162 289.839C394.383 291.268 396.605 292.697 398.854 294.082L399.279 294.344L399.279 294.344C403.402 296.884 407.529 299.426 411.75 301.794C413.757 302.92 415.884 303.834 418.008 304.746L418.009 304.747L418.01 304.747C418.554 304.981 419.098 305.214 419.639 305.451C419.954 305.589 420.68 305.431 420.83 305.18C421.183 304.586 421.413 303.914 421.641 303.247L421.641 303.246L421.641 303.245C421.687 303.112 421.732 302.979 421.779 302.847C422.667 300.315 423.79 297.951 425.705 295.979C427.151 294.491 426.947 294.044 424.939 293.198L424.783 293.133L424.601 293.057C423.762 292.707 422.915 292.353 422.154 291.873C420.738 290.979 419.361 290.01 418.038 288.982C416.864 288.07 415.687 287.161 414.509 286.253L414.508 286.252C410.537 283.187 406.566 280.121 402.705 276.923C399.111 273.946 395.695 270.737 392.349 267.477C391.883 267.024 391.413 266.574 390.941 266.124L390.941 266.123C388.095 263.402 385.236 260.669 383.43 257.059C383.183 256.564 382.897 256.087 382.611 255.611C381.78 254.227 380.949 252.844 381.072 251.026C381.147 249.914 380.998 248.786 380.85 247.659C380.796 247.252 380.742 246.844 380.699 246.438C380.583 245.341 380.444 244.244 380.306 243.148L380.306 243.145C380.023 240.902 379.74 238.659 379.644 236.409C379.515 233.369 379.545 230.322 379.574 227.276C379.587 225.964 379.599 224.653 379.599 223.342C379.599 223.034 379.59 222.725 379.581 222.416C379.561 221.742 379.542 221.068 379.616 220.404C379.977 217.173 380.344 213.941 380.83 210.727C380.925 210.1 381.018 209.471 381.11 208.842C381.563 205.764 382.017 202.68 382.767 199.673C383.42 197.052 384.223 194.468 385.026 191.884L385.026 191.882L385.027 191.881L385.027 191.879L385.027 191.878L385.028 191.876L385.028 191.875L385.029 191.873C385.663 189.832 386.297 187.791 386.858 185.731C387.262 184.246 387.707 182.772 388.151 181.297C389.265 177.606 390.379 173.915 390.852 170.054C390.955 169.213 391.168 168.375 391.381 167.539L391.381 167.539C391.693 166.31 392.004 165.088 391.96 163.871C391.804 159.475 390.579 155.239 389.346 151.011C387.505 144.694 384.31 139.425 378.784 135.675C375.595 133.511 372.254 131.927 368.298 132.436C366.863 132.621 365.442 132.917 364.022 133.213C363.338 133.355 362.655 133.498 361.97 133.628C358.083 134.365 354.642 136.081 351.544 138.493C349.731 139.905 347.96 141.378 346.238 142.9C344.516 144.422 342.794 145.962 341.226 147.637C339.766 149.195 338.409 150.85 337.053 152.503L337.052 152.504C336.757 152.864 336.462 153.223 336.166 153.582C333.834 156.406 331.509 159.237 329.229 162.102C328.23 163.356 327.252 164.628 326.273 165.899L326.272 165.9L326.272 165.9L326.272 165.9L326.272 165.901L326.272 165.901L326.272 165.901L326.272 165.901L326.271 165.901C324.793 167.823 323.314 169.744 321.765 171.607C318.957 174.987 316.041 178.282 313.084 181.533C309.019 185.999 304.883 190.401 300.747 194.802C300.394 195.177 299.989 195.504 299.583 195.831C299.097 196.223 298.612 196.614 298.222 197.086C295.228 200.7 292.407 204.47 290.406 208.728C288.56 212.654 286.782 216.611 285.004 220.569L285.004 220.569L285.004 220.569L285.004 220.57L285.004 220.57L285.004 220.57L285.004 220.57L285.003 220.57C283.405 224.128 281.807 227.685 280.159 231.22C277.489 236.949 274.55 242.53 271.003 247.798L270.743 248.185L270.743 248.186C268.843 251.011 266.942 253.838 264.264 255.897C260.774 258.581 257.14 261.079 253.508 263.577L253.5 263.582C252.554 264.232 251.609 264.883 250.665 265.536C247.601 267.659 245.177 270.339 243.984 273.868C242.521 278.201 243.269 282.505 245.313 286.455C247.829 291.316 251.81 295.032 255.875 298.573C260.386 302.502 265.628 305.32 271.284 307.131C278.554 309.46 285.866 311.72 293.555 312.38C295.565 312.552 297.568 312.816 299.57 313.079L299.571 313.079L299.571 313.079L299.571 313.079L299.571 313.079L299.572 313.079L299.572 313.079L299.572 313.08L299.572 313.08C301.806 313.374 304.04 313.667 306.283 313.835C311.244 314.205 316.226 314.411 321.201 314.438C323.438 314.451 325.676 314.295 327.914 314.14L327.914 314.14C329.335 314.041 330.756 313.943 332.177 313.887C336.042 313.735 339.702 312.719 343.307 311.437C345.73 310.576 347.972 309.391 348.857 306.775C349.372 305.252 349.628 303.622 349.84 302.019L349.894 301.607V301.606V301.606V301.606V301.605V301.605V301.605V301.604C350.341 298.22 350.789 294.831 351.044 291.43C351.278 288.296 351.4 285.154 351.527 281.895V281.895C351.575 280.668 351.624 279.425 351.679 278.159C351.71 277.752 351.735 277.344 351.76 276.937C351.817 276.017 351.873 275.097 351.999 274.186ZM223.478 366.453C223.64 366.599 224.009 366.694 224.191 366.611C225.021 366.233 225.865 365.877 226.709 365.52C228.768 364.652 230.828 363.783 232.683 362.594C235.994 360.473 239.225 358.226 242.457 355.979L242.458 355.978C244.994 354.215 247.53 352.452 250.105 350.749C255.721 347.034 260.645 342.511 265.57 337.987C266.53 337.105 267.489 336.224 268.454 335.349C269.951 333.99 271.359 332.532 272.766 331.075L272.767 331.074C273.072 330.759 273.376 330.444 273.682 330.13C275.354 328.409 277.012 326.673 278.669 324.937L278.671 324.935L278.676 324.93C279.396 324.175 280.116 323.421 280.837 322.668C281.354 322.128 281.873 321.59 282.391 321.051L282.392 321.05C284.275 319.093 286.157 317.136 287.982 315.126C288.197 314.889 287.928 313.706 287.682 313.631C286.647 313.318 285.594 313.062 284.541 312.806C283.206 312.482 281.871 312.157 280.575 311.716L279.915 311.491C274.555 309.666 269.187 307.839 263.942 305.717C259.137 303.774 254.687 301.105 250.708 297.719C250.647 297.667 250.361 297.736 250.33 297.811C249.181 300.587 247.043 302.479 244.897 304.377C244.408 304.81 243.918 305.243 243.439 305.687C241.186 307.778 238.951 309.922 236.977 312.27C235.701 313.787 234.615 315.465 233.53 317.142C233.131 317.759 232.733 318.376 232.325 318.984C231.863 319.671 231.376 320.348 230.889 321.025C229.694 322.684 228.498 324.346 227.679 326.175C225.852 330.256 223.02 333.507 220.063 336.675C217.157 339.789 213.196 340.948 209.286 342.093C208.922 342.2 208.558 342.306 208.196 342.414C206.759 342.842 205.281 343.13 203.802 343.417C202.991 343.575 202.18 343.732 201.375 343.913C201.171 343.959 200.988 344.096 200.804 344.234C200.719 344.297 200.634 344.361 200.547 344.416C200.641 344.529 200.738 344.674 200.835 344.82C201.043 345.134 201.252 345.447 201.437 345.434C203.325 345.3 204.735 346.271 206.121 347.225L206.122 347.225C206.491 347.479 206.859 347.732 207.234 347.963C209.062 349.088 210.856 350.3 211.921 352.395C212.612 353.754 213.541 354.995 214.467 356.232C214.751 356.612 215.035 356.991 215.312 357.373C216.45 358.945 217.639 360.48 218.935 362.151L219.211 362.507C219.37 362.654 219.528 362.802 219.687 362.95L220.18 363.41C221.274 364.43 222.368 365.451 223.478 366.453ZM320.319 320.907L320.319 320.908C322.746 321.831 325.174 322.754 327.026 324.8C327.588 325.422 328.236 325.964 328.885 326.506C329.306 326.859 329.728 327.212 330.127 327.587C331.446 328.828 331.902 330.486 332.356 332.138L332.357 332.138C332.393 332.272 332.43 332.406 332.467 332.54C332.484 332.598 332.5 332.656 332.516 332.714L332.532 332.769L332.557 332.856C333.804 337.193 333.521 341.68 332.427 345.839C332.356 346.107 332.286 346.376 332.215 346.645C330.757 352.202 329.278 357.841 326.183 362.827C325.824 363.406 325.636 363.715 326.623 363.743C329.278 363.82 331.932 363.919 334.587 364.018C337.512 364.128 340.437 364.237 343.362 364.316C345.196 364.365 347.032 364.353 348.867 364.342H348.87C350.136 364.333 351.402 364.325 352.667 364.337C355.981 364.368 359.201 363.889 362.217 362.483C362.337 362.427 362.461 362.37 362.587 362.313C363.618 361.842 364.784 361.31 365.249 360.464C366.434 358.309 367.274 355.937 368.039 353.583C369.159 350.138 370.267 346.672 371.048 343.14C371.714 340.125 372.051 337.015 372.26 333.928C372.322 332.999 372.165 332.059 372.006 331.116V331.116V331.116V331.115V331.115V331.115V331.115V331.114C371.88 330.365 371.754 329.614 371.738 328.865C371.676 325.927 370.284 323.534 368.891 321.14L368.795 320.974L368.647 320.72C368.323 320.16 367.907 319.654 367.491 319.148L367.491 319.148L367.491 319.147C367.166 318.752 366.841 318.357 366.558 317.934C364.334 314.609 362.12 311.278 359.907 307.947L359.902 307.94L359.897 307.932L359.892 307.925L359.883 307.911L359.869 307.89L359.859 307.876C358.29 305.514 356.72 303.153 355.147 300.793C354.996 300.566 354.801 300.369 354.606 300.171L354.605 300.171C354.514 300.079 354.424 299.987 354.337 299.892C354.25 300.026 354.147 300.156 354.044 300.287C353.82 300.572 353.595 300.858 353.529 301.176C353.376 301.915 353.275 302.664 353.174 303.414C353.088 304.052 353.002 304.691 352.884 305.323C352.199 308.988 350.444 311.804 346.99 313.616C342.229 316.114 337.113 317.18 331.884 317.781C328.869 318.128 325.798 318.183 322.762 318.084C320.937 318.025 319.117 317.8 317.296 317.574C316.311 317.452 315.325 317.33 314.338 317.235C314.072 317.209 313.796 317.289 313.52 317.369L313.52 317.369C313.392 317.406 313.264 317.443 313.137 317.47C313.215 317.533 313.293 317.596 313.37 317.659C313.565 317.819 313.759 317.978 313.962 318.125C313.967 318.128 313.971 318.131 313.976 318.134C313.982 318.139 313.989 318.143 313.996 318.147C314.007 318.154 314.019 318.16 314.031 318.167C314.046 318.175 314.061 318.182 314.078 318.19L314.113 318.207C314.207 318.252 314.33 318.31 314.503 318.434C314.735 318.53 314.969 318.62 315.204 318.71C315.713 318.905 316.223 319.101 316.701 319.355C317.856 319.97 319.087 320.438 320.318 320.907L320.318 320.907L320.318 320.907L320.318 320.907L320.319 320.907L320.319 320.907L320.319 320.907ZM379.64 86.0085C377.717 88.823 376.554 92.0325 375.968 95.4064C375.373 98.8348 375.289 102.302 376.294 105.648C376.886 107.622 377.557 109.573 378.228 111.524L378.228 111.525L378.228 111.526L378.229 111.526L378.229 111.527L378.229 111.528L378.23 111.529L378.23 111.53C379.007 113.79 379.784 116.049 380.439 118.344C380.844 119.761 381.761 120.425 382.774 120.781C387.554 122.465 392.747 120.418 395.715 116.023C396.521 114.83 396.057 114.34 395.237 113.506C394.129 112.377 393.159 111.07 392.334 109.714C391.102 107.69 391.623 105.627 393.034 103.993C394.447 102.358 396.566 101.994 398.539 102.68C400.793 103.462 402.415 105.186 403.571 107.297C403.626 107.396 403.664 107.503 403.703 107.61C403.721 107.66 403.739 107.71 403.759 107.759C403.771 107.732 403.785 107.705 403.798 107.679C403.827 107.622 403.856 107.564 403.876 107.504C404.046 106.986 404.209 106.465 404.373 105.944L404.373 105.943L404.374 105.941L404.374 105.94L404.375 105.938L404.375 105.937L404.375 105.936L404.376 105.934C405.239 103.182 406.105 100.423 407.851 98.0752C409.211 96.2449 410.677 94.4198 412.405 92.959C413.696 91.8668 415.291 91.1069 416.856 90.3614L417.164 90.2146C417.29 90.1546 417.415 90.0945 417.54 90.0343C418.074 89.7763 418.607 89.513 419.141 89.2494C421.382 88.1429 423.631 87.032 425.991 86.2927C426.387 86.1685 426.587 86.1073 426.68 86.0789C426.733 86.0628 426.751 86.0573 426.751 86.0568C426.751 86.0565 426.746 86.0577 426.738 86.0594C426.614 86.0871 425.815 86.2652 433.615 83.4522C444.504 79.5248 438.902 67.1526 435.678 64.4309C435.438 64.2282 435.056 64.0105 434.798 64.0663C434.566 64.1164 434.271 64.5208 434.247 64.7908C434.005 67.4954 430.041 71.6924 420.626 71.0408C414.182 70.5948 414.042 70.6204 413.734 70.6771C413.591 70.7032 413.413 70.7359 412.565 70.732C410.535 70.7226 403.507 71.3771 402.086 71.7789C401.569 71.9249 400.894 72.066 400.1 72.232C396.314 73.023 389.821 74.3798 384.91 79.5248C384.366 80.1858 383.807 80.8364 383.248 81.4869C381.987 82.9539 380.726 84.4209 379.64 86.0085ZM405.392 112.862C405.392 114.23 405.118 115.576 404.844 116.921C404.712 117.568 404.58 118.215 404.479 118.864C404.463 118.967 404.409 119.063 404.356 119.16C404.331 119.205 404.306 119.25 404.285 119.295L404.274 119.253L404.267 119.227L404.251 119.164C404.225 119.071 404.2 118.977 404.182 118.883C404.058 118.22 403.942 117.556 403.825 116.892L403.825 116.891L403.825 116.891L403.825 116.891L403.825 116.89C403.562 115.387 403.299 113.884 402.94 112.404C402.51 110.63 402.031 108.822 401.236 107.195C400.316 105.313 396.465 104.425 394.57 105.412C393.489 105.975 392.971 107.324 393.672 108.305C394.335 109.232 395.148 110.18 396.115 110.731C397.704 111.638 398.22 113.149 398.349 114.63C398.592 117.415 395.669 121.332 392.829 122.036C390.247 122.676 387.615 123.122 384.986 123.567L384.986 123.567C384.365 123.672 383.744 123.777 383.124 123.885C383.06 123.896 382.997 123.906 382.934 123.917C382.107 124.053 381.448 124.162 381.71 125.374C382.422 128.666 382.655 131.982 382.057 135.33C382.021 135.533 382.391 135.852 382.627 136.054C382.927 136.311 383.244 136.553 383.56 136.795L383.56 136.795C384.141 137.24 384.722 137.684 385.202 138.22C385.992 139.1 386.728 140.028 387.464 140.956L387.464 140.957L387.465 140.957L387.465 140.957L387.465 140.958L387.466 140.958L387.466 140.958L387.466 140.959C387.971 141.595 388.476 142.232 388.999 142.854C389.135 143.016 389.685 143.084 389.816 142.958C390.487 142.317 391.141 141.658 391.794 140.998L391.795 140.997C392.56 140.225 393.325 139.454 394.118 138.711C396.034 136.917 397.999 135.171 399.987 133.456C400.245 133.234 400.6 133.126 400.954 133.017C401.118 132.966 401.282 132.916 401.436 132.855C401.371 133.004 401.308 133.153 401.245 133.302L401.245 133.303C401.073 133.711 400.901 134.119 400.697 134.51C400.661 134.579 400.559 134.606 400.451 134.636C400.359 134.66 400.263 134.687 400.201 134.74C400.168 134.769 400.135 134.797 400.103 134.824C399.72 135.151 399.438 135.391 400.289 135.797C401.188 136.225 402.022 136.793 402.855 137.361L402.855 137.361L402.855 137.362C403.203 137.599 403.552 137.836 403.904 138.063C409.343 141.563 415.202 143.206 421.687 142.143C425.355 141.541 427.873 139.59 428.991 135.98C430.062 132.522 429.617 131.516 426.313 130.126C426.201 130.079 426.089 130.032 425.976 129.985L425.975 129.985C424.232 129.26 422.501 128.54 422.045 126.404C421.857 125.526 423.481 124.579 423.84 125.402C423.842 125.408 423.844 125.413 423.845 125.418C424.198 127.029 425.42 127.585 426.709 128.165C429.08 129.233 429.37 129.083 429.37 126.65C429.37 123.463 429.37 123.463 432.165 122.47C433.784 121.896 434.044 121.333 433.308 119.761C432.197 117.386 431.472 114.966 431.78 112.281C432.158 108.972 432.474 105.652 432.683 102.329C432.817 100.193 432.944 98.0071 432.639 95.9075C432.443 94.563 431.963 93.2597 431.483 91.9568C431.276 91.3963 431.07 90.8359 430.886 90.2723C430.454 88.9482 429.414 88.4162 428.056 88.9059C427.207 89.2118 426.353 89.5068 425.499 89.8019C423.121 90.6233 420.742 91.4452 418.475 92.505C416.088 93.6207 413.672 95.0045 411.816 96.8279C410.148 98.4662 405.392 106.719 405.392 112.862ZM212.395 370.046L212.397 370.045C214.587 369.56 216.776 369.076 218.961 368.571C219.275 368.499 219.569 368.337 219.863 368.174L219.863 368.174C219.999 368.099 220.135 368.024 220.273 367.958C220.157 367.889 220.039 367.823 219.92 367.757C219.647 367.603 219.373 367.45 219.122 367.266C218.845 367.062 218.609 366.796 218.38 366.535L218.379 366.535L218.366 366.52C217.711 365.778 217.047 365.043 216.382 364.308C214.763 362.517 213.143 360.727 211.664 358.827C210.201 356.948 209.038 354.818 207.891 352.716L207.863 352.664C207.298 351.629 206.656 351.191 205.569 351.57C200.946 353.185 196.16 354.066 191.374 354.947L191.373 354.948C188.877 355.407 186.381 355.867 183.908 356.431C179.854 357.355 159.448 360.864 157.671 360.992C156.806 361.054 155.941 361.142 155.076 361.23L155.075 361.23C153.393 361.401 151.712 361.571 150.032 361.552C145.74 361.504 141.532 361.967 137.328 362.783C136.003 363.04 134.659 363.203 133.315 363.366L133.314 363.366L133.313 363.366C131.779 363.552 130.245 363.738 128.74 364.064C123.895 365.114 122.271 369.251 123.52 373.293C123.759 374.069 124.616 374.945 125.384 375.217C128.89 376.457 132.559 376.779 136.268 376.808C138.178 376.823 140.089 376.912 141.999 377H141.999H142H142H142.001C142.728 377.034 143.456 377.068 144.184 377.098C146.919 377.209 149.654 377.323 152.388 377.437H152.389H152.389H152.39H152.391H152.391H152.392H152.392C154.529 377.526 156.666 377.615 158.803 377.703C158.954 377.709 159.106 377.707 159.258 377.704C159.41 377.702 159.561 377.7 159.713 377.706C160.461 377.737 161.211 377.788 161.961 377.839C163.601 377.951 165.241 378.063 166.868 377.962C169.42 377.804 171.963 377.503 174.507 377.201C175.688 377.061 176.869 376.921 178.051 376.795C178.776 376.718 179.503 376.655 180.23 376.592L180.231 376.592H180.232C181.549 376.478 182.866 376.364 184.17 376.166L184.827 376.066L184.828 376.066C188.162 375.56 191.502 375.053 194.791 374.328C197.345 373.764 199.881 373.12 202.473 372.461L202.473 372.461L202.474 372.461L202.475 372.46L202.475 372.46C204.373 371.978 206.3 371.488 208.286 371.017C208.339 371.002 208.392 370.987 208.446 370.972C208.507 370.954 208.568 370.936 208.629 370.918L208.63 370.918C208.877 370.845 209.124 370.772 209.375 370.716C210.381 370.491 211.388 370.268 212.395 370.046ZM325.016 441C326.586 438.745 328.072 436.427 329.512 434.086C330.822 431.958 332.046 429.776 333.269 427.596C334.365 425.645 335.502 423.717 336.639 421.789C339.277 417.315 341.916 412.841 344.034 408.067C345.254 405.317 346.667 402.654 348.081 399.991C348.755 398.721 349.428 397.451 350.081 396.171C350.389 395.568 350.703 394.967 351.017 394.367L351.018 394.365C351.877 392.72 352.736 391.075 353.474 389.377C354.032 388.092 354.522 386.774 355.011 385.457C355.763 383.433 356.513 381.41 357.511 379.516C359.115 376.474 360.178 373.26 361.241 370.044L361.242 370.044L361.242 370.043L361.242 370.043L361.242 370.042L361.242 370.042L361.243 370.041L361.243 370.041L361.243 370.04L361.244 370.038C361.589 368.995 361.934 367.952 362.298 366.914C362.354 366.753 362.39 366.584 362.427 366.416C362.434 366.379 362.442 366.342 362.45 366.306L362.459 366.265L362.465 366.239C362.47 366.22 362.474 366.201 362.479 366.181C362.393 366.198 362.306 366.213 362.219 366.228C362.03 366.26 361.841 366.292 361.659 366.346C361.293 366.455 360.93 366.587 360.566 366.72C359.812 366.994 359.059 367.268 358.289 367.329C355.408 367.556 352.512 367.653 349.622 367.652C347.836 367.652 346.05 367.581 344.263 367.511H344.262H344.262H344.261H344.261H344.26H344.259H344.259L344.253 367.511C343.102 367.465 341.951 367.42 340.8 367.393C340.586 367.388 340.251 367.657 340.164 367.875C340.059 368.142 339.953 368.408 339.847 368.675L339.847 368.675L339.847 368.676L339.847 368.676L339.847 368.677L339.847 368.677L339.847 368.677L339.847 368.678C339.125 370.498 338.403 372.32 337.773 374.172C336.201 378.789 334.677 383.422 333.172 388.06C331.261 393.949 328.908 399.632 326.316 405.271C323.913 410.499 322.121 416.065 320.984 421.796C320.453 424.471 319.667 427.097 318.882 429.72C318.693 430.352 318.504 430.985 318.318 431.618C317.736 433.602 317.094 435.569 316.452 437.536L316.45 437.543L316.444 437.559L316.199 438.31C316.133 438.511 316.068 438.713 316.002 438.915C315.921 439.166 315.84 439.416 315.759 439.668C315.234 441.297 315.695 442.818 316.976 443.016C318.404 443.237 319.877 443.157 321.483 443.055C322.941 442.853 324.192 442.183 325.016 441ZM115.242 384.983C116.826 382.378 118.458 380.019 121.678 379.315C122.874 379.053 122.94 378.43 122.148 377.429C121.974 377.21 121.79 376.991 121.606 376.771L121.606 376.771C120.944 375.982 120.269 375.178 119.983 374.264C119.674 373.276 119.735 372.159 119.794 371.062C119.809 370.779 119.824 370.498 119.833 370.221C119.938 366.906 120.874 364.077 124.156 362.467C125.13 361.989 125.715 361.27 124.738 359.86C122.537 356.685 119.62 354.437 116.403 352.49C115.142 351.727 113.982 352.181 113.48 353.513C113.262 354.092 113.042 354.671 112.822 355.249C112.125 357.077 111.428 358.906 110.811 360.761C110.132 362.797 109.487 364.845 108.842 366.893L108.841 366.894C108.16 369.055 107.479 371.216 106.759 373.364C106.165 375.138 105.641 376.933 105.118 378.727C104.172 381.971 103.226 385.216 101.857 388.347C98.7069 395.558 96.1605 403.015 94.9556 410.85C94.8919 411.264 94.9806 411.975 95.2257 412.1C95.5985 412.29 96.2352 412.221 96.643 412.021C97.3228 411.689 98.0369 411.274 98.5128 410.705C100.007 408.921 101.397 407.05 102.827 404.908C104.011 403.014 105.2 401.122 106.388 399.23L106.389 399.229L106.389 399.229C109.363 394.495 112.338 389.76 115.242 384.983ZM338.247 446.403C337.96 446.33 337.672 446.26 337.384 446.19C334.745 445.548 332.124 444.91 330.595 442.183C329.874 440.896 329.243 440.994 328.515 442.408C327.884 443.633 327.103 444.708 325.857 445.347C325.194 445.687 324.491 445.961 323.788 446.211C320.294 447.449 316.896 447.605 313.833 445.102C312.339 443.881 311.853 443.993 310.688 445.512C308.803 447.969 307.837 450.834 306.876 453.687L306.794 453.931C305.758 457.003 306.32 457.645 309.585 457.645H368.149C368.272 457.645 368.4 457.656 368.527 457.667C368.821 457.692 369.114 457.717 369.347 457.61C369.647 457.471 370.049 456.815 369.998 456.76C369.783 456.524 369.573 456.275 369.362 456.025C368.718 455.259 368.065 454.484 367.237 454.064C365.584 453.226 363.732 452.729 361.919 452.27C355.228 450.576 348.519 448.957 341.513 447.31C341.423 447.285 341.333 447.26 341.243 447.235L341.021 447.172C340.845 447.122 340.668 447.071 340.491 447.021C339.745 446.807 338.999 446.594 338.247 446.403ZM452.777 333.871C452.846 334.128 453.153 334.32 453.46 334.513C453.602 334.601 453.743 334.69 453.861 334.785C453.938 334.676 454.034 334.568 454.13 334.46C454.339 334.226 454.548 333.991 454.56 333.747C454.569 333.565 454.579 333.383 454.591 333.2C454.6 333.054 454.61 332.909 454.619 332.763C454.705 331.482 454.791 330.188 454.538 328.971C454.043 326.591 453.266 324.251 452.383 321.981C452.162 321.414 452.425 321.144 452.673 320.89C452.852 320.706 453.023 320.53 452.996 320.257C453.154 320.359 453.324 320.452 453.494 320.545C453.881 320.758 454.269 320.971 454.525 321.29C454.749 321.571 454.853 321.945 454.957 322.322C455.02 322.547 455.082 322.773 455.171 322.982C455.247 323.159 455.322 323.337 455.397 323.514L455.537 323.846L455.544 323.861L455.544 323.863C456.148 325.293 456.752 326.724 457.451 328.106C457.575 328.351 457.948 328.471 458.321 328.59C458.493 328.645 458.664 328.7 458.812 328.767C458.875 328.628 458.955 328.489 459.035 328.349L459.035 328.348C459.21 328.043 459.385 327.737 459.382 327.434C459.369 326.058 459.26 324.677 459.096 323.31C459.071 323.094 459.048 322.876 459.025 322.658C458.922 321.671 458.816 320.666 458.436 319.793C457.277 317.133 456.047 314.481 454.57 311.991C453.635 310.415 452.364 308.94 450.953 307.773C449.7 306.736 448.257 305.923 446.82 305.113C446.436 304.897 446.052 304.68 445.672 304.46C443.354 303.116 441.004 301.825 438.649 300.547C438.623 300.533 438.598 300.519 438.571 300.504C438.296 300.347 437.971 300.161 437.681 300.794C437.136 301.985 436.558 303.161 435.98 304.337L435.979 304.338L435.979 304.339C435.076 306.175 434.174 308.011 433.4 309.899C433.384 309.939 433.366 309.981 433.347 310.026C433.044 310.747 432.507 312.021 434.15 312.725C435.914 313.481 437.648 314.567 439.039 315.885C443.131 319.762 444.977 324.944 446.81 330.09L446.954 330.493C447.307 331.483 447.56 332.51 447.813 333.536L447.813 333.537L447.813 333.538L447.813 333.539C447.933 334.026 448.053 334.512 448.183 334.995C448.231 335.17 448.287 335.344 448.343 335.517C448.369 335.598 448.395 335.678 448.42 335.758C448.476 335.717 448.538 335.679 448.602 335.641L448.646 335.616L448.706 335.582C448.922 335.458 449.137 335.335 449.213 335.154C449.986 333.298 450.218 331.431 449.642 329.414C449.185 327.81 449.02 326.113 448.857 324.442V324.442L448.842 324.29C448.822 324.086 449.107 323.852 449.391 323.618L449.392 323.617C449.464 323.558 449.535 323.499 449.602 323.441C449.658 323.392 449.71 323.344 449.756 323.296C449.779 323.327 449.804 323.358 449.83 323.388C449.85 323.412 449.87 323.435 449.891 323.459C449.921 323.492 449.951 323.525 449.981 323.559L449.982 323.56L449.983 323.56L449.983 323.561C450.156 323.751 450.329 323.94 450.39 324.161C450.52 324.629 450.641 325.1 450.764 325.579L450.764 325.58C450.988 326.453 451.219 327.352 451.524 328.311C451.629 328.797 451.732 329.282 451.834 329.768L451.834 329.769L451.835 329.769L451.835 329.769L451.835 329.77L451.835 329.77L451.835 329.771L451.835 329.771C452.124 331.144 452.414 332.518 452.777 333.871ZM434.113 302.868C434.331 302.342 434.592 301.839 434.852 301.335C435.483 300.114 436.115 298.893 436.15 297.354C436.181 295.946 435.926 295.191 434.79 294.498C433.587 293.764 432.217 293.322 431.147 294.166C428.715 296.084 426.471 298.312 425.17 301.164C424.351 302.961 423.761 304.865 423.171 306.766L423.171 306.768L423.17 306.769L423.17 306.77L423.169 306.771C422.968 307.421 422.766 308.071 422.556 308.716C422.435 309.085 422.492 309.544 422.571 309.94C423.041 312.313 424.812 313.487 426.783 314.482C427.823 315.007 428.591 314.746 429.059 313.718C429.377 313.019 429.691 312.317 430.007 311.609L430.01 311.603L430.011 311.601C430.674 310.119 431.349 308.61 432.101 307.035C432.309 306.609 432.524 306.185 432.738 305.761C433.221 304.807 433.704 303.853 434.113 302.868ZM91.6208 410.02C92.7065 407.433 93.7376 404.814 94.6073 402.148C95.1889 400.366 95.7018 398.561 96.2146 396.755C96.6791 395.121 97.1435 393.486 97.6591 391.868C98.4683 389.328 99.3169 386.8 100.166 384.273C100.959 381.911 101.752 379.549 102.513 377.177C103.938 372.735 105.327 368.282 106.717 363.829C107.341 361.828 107.966 359.827 108.593 357.827C108.758 357.301 108.926 356.775 109.094 356.25L109.094 356.248L109.094 356.248C109.54 354.851 109.985 353.454 110.385 352.043C110.444 351.834 110.323 351.574 110.203 351.313C110.147 351.193 110.091 351.072 110.053 350.957C109.93 351.038 109.787 351.111 109.644 351.183C109.336 351.34 109.027 351.497 108.914 351.744C107.846 354.083 106.802 356.437 105.88 358.837C105.031 361.045 104.273 363.29 103.516 365.533L103.516 365.533L103.287 366.21L103.135 366.66C102.994 367.075 102.853 367.49 102.712 367.905L102.711 367.907C101.916 370.244 101.121 372.582 100.413 374.946C99.6806 377.392 98.9862 379.851 98.2918 382.309L98.2917 382.309L98.2914 382.31L98.2913 382.311C97.783 384.111 97.2746 385.91 96.7512 387.706C96.5594 388.363 96.3693 389.022 96.1793 389.68L96.1791 389.681L96.179 389.682L96.1788 389.682L96.1787 389.683L96.1782 389.684C95.3778 392.458 94.5771 395.232 93.6446 397.961C93.0639 399.66 92.4499 401.348 91.8335 403.043L91.8333 403.043L91.8331 403.044C90.9725 405.41 90.1074 407.788 89.3218 410.228C90.4611 411.732 90.8968 411.745 91.6208 410.02ZM350.074 463.188C350.388 463.165 350.703 463.142 351.017 463.119L351.02 463.118C352.54 463.006 354.06 462.894 355.582 462.82C357.592 462.722 359.602 462.634 361.613 462.546C364.268 462.43 366.924 462.314 369.578 462.175C369.788 462.164 369.987 461.955 370.186 461.746L370.186 461.746C370.278 461.649 370.371 461.552 370.465 461.475C370.384 461.426 370.306 461.373 370.227 461.319C370.044 461.196 369.861 461.072 369.66 461.004C369.503 460.95 369.324 460.964 369.144 460.977C369.103 460.98 369.061 460.983 369.02 460.985C369 460.986 368.979 460.987 368.959 460.988L368.937 460.988L368.907 460.988H308.572C308.478 460.988 308.373 460.976 308.269 460.964C308.039 460.938 307.809 460.911 307.683 461.013C307.25 461.362 306.861 461.808 306.599 462.293C306.543 462.395 307.067 463.01 307.392 463.082C308.289 463.281 309.221 463.406 310.139 463.407C323.025 463.426 335.911 463.42 348.948 463.268C349.323 463.242 349.699 463.215 350.074 463.188ZM443.182 465.068C440.748 466.049 438.316 467.006 435.891 467.959C431.275 469.774 426.684 471.58 422.156 473.527C419.062 474.858 415.963 475.062 412.741 474.967C412.468 474.959 412.195 474.897 411.923 474.836L411.923 474.836C411.63 474.77 411.338 474.704 411.045 474.704C410.809 474.704 410.573 474.835 410.337 474.965C410.231 475.023 410.125 475.082 410.019 475.129C410.041 475.163 410.062 475.199 410.083 475.234C410.115 475.289 410.145 475.344 410.175 475.4C410.287 475.604 410.399 475.808 410.563 475.954C411.028 476.371 411.513 476.798 412.062 477.085C416.237 479.272 418.65 485.242 417.175 489.721C416.451 491.92 415.574 494.255 414.107 495.966C412.914 497.359 410.834 498.277 408.978 498.759C406.047 499.521 402.988 499.544 400.032 498.472C397.449 497.535 395.594 495.801 394.226 493.458C390.902 487.763 392.267 482.823 395.802 478.225C396.266 477.622 397.014 477.241 397.768 476.858C398.19 476.644 398.613 476.429 398.99 476.173C399.258 475.992 399.465 475.722 399.672 475.453C399.767 475.33 399.862 475.207 399.962 475.093C399.902 475.078 399.842 475.062 399.782 475.046C399.676 475.016 399.57 474.985 399.463 474.954C399.083 474.842 398.702 474.729 398.317 474.713C398.052 474.702 397.785 474.771 397.517 474.839C397.268 474.903 397.019 474.967 396.77 474.967L388.692 474.972L387.346 474.973C366.052 474.986 344.759 474.999 323.465 474.965C318.321 474.957 313.176 474.88 308.032 474.803C305.005 474.758 301.979 474.713 298.952 474.682C296.715 474.659 294.478 474.665 292.241 474.671C291.223 474.674 290.205 474.676 289.186 474.676C289.096 474.676 289.006 474.676 288.915 474.676L288.751 474.675L288.529 474.674C287.921 474.67 287.313 474.667 286.707 474.69C286.58 474.695 286.456 474.781 286.333 474.868C286.276 474.908 286.219 474.947 286.162 474.979L286.201 475.007L286.233 475.03C286.264 475.052 286.295 475.074 286.325 475.097L286.377 475.134C286.402 475.152 286.426 475.17 286.451 475.187C286.526 475.241 286.602 475.294 286.681 475.343C287.191 475.661 287.727 475.953 288.262 476.245C289.412 476.874 290.562 477.502 291.465 478.382C297.639 484.408 295.647 496.319 286.409 498.706C278.935 500.637 272.33 498.151 270.111 489.275C268.743 483.803 272.401 477.278 277.932 475.568C278.172 475.494 278.378 475.314 278.585 475.134C278.681 475.05 278.777 474.966 278.876 474.893C278.775 474.838 278.673 474.768 278.571 474.698C278.353 474.547 278.135 474.397 277.916 474.396C270.624 474.367 263.789 472.246 257.087 469.711C248.084 466.306 239.33 462.334 231.225 457.092L231.071 456.993C229.573 456.026 228.029 455.029 227.5 453.007C226.51 449.222 228.424 446.304 231.957 445.344C235.72 444.323 239.327 445.398 242.881 446.538C249.049 448.517 255.212 450.509 261.375 452.502C264.801 453.609 268.227 454.717 271.653 455.822L272.101 455.966C273.96 456.566 275.82 457.166 277.695 457.713C278.383 457.914 279.124 458.016 279.841 458.018C282.934 458.03 286.027 458.031 289.12 458.033C292.199 458.034 295.278 458.035 298.357 458.047C298.814 458.049 299.598 458.176 299.665 458.407C299.808 458.905 299.807 459.445 299.805 459.985C299.804 460.196 299.804 460.407 299.812 460.615C299.778 460.603 299.745 460.589 299.712 460.574L299.675 460.558C299.576 460.513 299.477 460.468 299.383 460.476C299.034 460.508 298.686 460.551 298.338 460.594L298.337 460.594C297.819 460.657 297.302 460.721 296.782 460.748C294.978 460.841 293.173 460.925 291.368 461.009C288.956 461.121 286.544 461.233 284.134 461.368C279.868 461.606 275.845 460.405 271.859 459.214L271.858 459.214L271.822 459.203C268.729 458.278 265.675 457.225 262.62 456.171L262.62 456.171L262.619 456.171L262.619 456.171L262.618 456.171L262.618 456.171L262.617 456.17L262.616 456.17L262.616 456.17C260.889 455.574 259.162 454.979 257.428 454.406C255.258 453.69 253.081 452.99 250.905 452.291L250.898 452.289C248.391 451.483 245.884 450.678 243.386 449.846C242.754 449.636 242.138 449.355 241.524 449.075C240.545 448.628 239.57 448.184 238.547 448.032C236.665 447.753 234.65 447.904 232.774 448.274C232.041 448.419 231.219 449.585 230.988 450.435C230.68 451.57 230.89 452.688 232.217 453.532C238.38 457.45 244.876 460.699 251.548 463.646C257.609 466.324 263.866 468.411 270.257 470.113C271.282 470.386 272.392 470.408 273.464 470.428C275.914 470.474 278.363 470.505 280.813 470.535C284.949 470.586 289.085 470.638 293.22 470.764C297.795 470.903 302.368 471.125 306.942 471.347H306.942H306.942H306.942H306.942H306.943H306.943L306.948 471.348C309.076 471.451 311.204 471.554 313.332 471.649C315.218 471.733 317.104 471.815 318.99 471.896C321.725 472.015 324.46 472.133 327.195 472.259C327.785 472.287 328.375 472.336 328.965 472.385L328.966 472.385C330.004 472.472 331.042 472.558 332.077 472.525C332.984 472.496 333.888 472.37 334.792 472.245C335.573 472.136 336.355 472.028 337.14 471.981C337.671 471.95 338.206 472.029 338.743 472.108C339.178 472.172 339.613 472.236 340.048 472.241C340.313 472.245 340.577 472.249 340.842 472.253C341.099 472.257 341.356 472.261 341.614 472.265H341.615H341.617H341.618H341.62C344.031 472.304 346.444 472.343 348.849 472.228C350.924 472.129 352.996 471.966 355.068 471.802H355.068H355.068H355.069H355.069H355.069H355.069L355.073 471.802C357.072 471.644 359.071 471.487 361.072 471.387C361.667 471.357 362.267 471.505 362.87 471.653C363.4 471.783 363.931 471.914 364.462 471.925C368.103 472 371.747 471.992 375.389 471.941C378.939 471.892 382.491 471.799 386.038 471.63C386.741 471.596 387.448 471.474 388.153 471.352C389.195 471.172 390.233 470.993 391.245 471.102C395.303 471.543 399.374 471.654 403.44 471.766H403.441H403.441H403.442H403.442H403.442H403.443H403.443C406.236 471.843 409.026 471.919 411.808 472.102C416.835 472.433 421.287 471.232 425.696 469.43C431.663 466.991 437.581 464.408 443.388 461.613C447.018 459.866 450.483 457.76 453.934 455.663L453.935 455.663L454.566 455.28C456.766 453.944 458.445 452.058 459.135 449.468C459.483 448.162 458.756 447.163 457.446 447.134C453.384 447.045 449.675 448.455 445.986 449.874C440.623 451.939 435.282 454.062 429.959 456.228C427.81 457.101 425.678 458.016 423.546 458.931L423.544 458.931L423.542 458.932L423.54 458.933L423.539 458.934L423.537 458.934L423.535 458.935L423.532 458.937C421.933 459.622 420.334 460.308 418.728 460.977C418.168 461.211 417.521 461.342 416.914 461.345C411.834 461.365 406.754 461.363 401.674 461.361C400.279 461.361 398.883 461.361 397.488 461.361L395.378 461.361L393.297 461.361C389.516 461.362 385.736 461.363 381.955 461.357C380.662 461.354 379.368 461.311 378.075 461.263C377.992 461.26 377.858 461.054 377.85 460.935C377.838 460.768 377.845 460.598 377.851 460.429C377.86 460.192 377.869 459.955 377.828 459.727C377.651 458.758 378.067 458.608 378.962 458.614C385.336 458.657 391.71 458.676 398.084 458.625C398.719 458.62 399.353 458.616 399.988 458.611H399.989C405.384 458.571 410.782 458.532 416.167 458.257C417.875 458.17 419.596 457.427 421.23 456.721L421.263 456.707L421.451 456.626L421.536 456.589L421.648 456.541C430.979 452.538 440.404 448.783 450.116 445.803C451.876 445.263 453.749 445.06 455.605 444.858C455.955 444.82 456.305 444.782 456.654 444.742C457.919 444.596 459.26 444.504 460.487 444.764C462.435 445.178 463.244 447.048 462.648 449.001C461.565 452.552 459.401 455.254 456.252 457.172C454.005 458.541 451.751 459.898 449.483 461.263L449.48 461.265L449.476 461.267L449.472 461.269L449.469 461.271L449.465 461.274L449.461 461.276C447.38 462.528 445.289 463.787 443.182 465.068ZM412.142 481.486C408.594 477.624 404.496 476.914 399.608 479.739C396.784 481.371 395.544 485.21 395.781 487.642C396.037 490.261 397.346 492.433 399.346 494.134C401.745 496.174 404.55 496.178 407.439 495.557C413.857 494.177 415.782 485.842 412.142 481.486ZM273.716 485.722C273.716 485.998 273.711 486.274 273.706 486.55C273.695 487.148 273.685 487.747 273.724 488.341C274.049 493.246 279.742 497.056 284.761 495.613C288.334 494.586 290.395 492.452 291.125 488.705C292.244 482.957 288.675 478.817 283.745 478.103C278.874 477.398 274.867 480.087 273.716 485.722ZM312.64 503.118L324.018 503.118H380.031L383.831 503.119L387.925 503.119H387.95C400.449 503.121 412.947 503.123 425.446 503.08C426.262 503.077 427.162 502.606 427.834 502.144C428.015 502.02 427.631 501.034 427.258 500.611C427.005 500.325 426.319 500.221 425.827 500.221C385.949 500.209 346.071 500.206 306.193 500.204H305.799C290.149 500.203 274.499 500.202 258.849 500.2C258.27 500.2 257.69 500.161 257.111 500.122H257.11H257.109H257.109H257.108L257.107 500.122L257.106 500.122L256.855 500.105C256.732 500.097 256.609 500.089 256.485 500.082C255.524 500.026 254.279 501.305 254.676 502.039C255.246 503.094 256.415 503.12 257.56 503.12C275.874 503.118 294.188 503.118 312.588 503.118H312.598H312.609H312.619H312.629H312.64ZM212.61 503.869L205.08 503.869H204.889H204.877H204.865H204.853H204.841C193.75 503.869 182.74 503.87 171.73 503.864C171.613 503.864 171.495 503.868 171.378 503.872C170.631 503.897 169.887 503.921 169.59 502.949C169.245 501.824 169.717 501.006 170.973 500.859C171.211 500.832 171.454 500.839 171.697 500.846L171.7 500.847L171.756 500.848L171.811 500.85C171.885 500.852 171.958 500.853 172.032 500.853L183.466 500.853C203.173 500.854 222.881 500.854 242.588 500.849C242.653 500.849 242.717 500.849 242.781 500.849C243.799 500.843 244.762 500.838 244.719 502.212C244.683 503.351 244.008 503.869 242.438 503.869C234.807 503.869 227.176 503.869 219.475 503.869H219.454H212.61ZM476.628 503.874L484.63 503.874L487.237 503.874L489.712 503.874H489.727H489.742H489.758H489.773C496.232 503.875 502.617 503.876 509.002 503.862C509.667 503.86 510.341 503.727 510.989 503.576C511.168 503.535 511.347 503.223 511.389 503.012C511.717 501.389 511.19 500.859 509.289 500.859C488.126 500.859 466.964 500.859 445.801 500.859H438.747L438.718 500.859L438.683 500.859C438.661 500.858 438.638 500.858 438.615 500.857C438.57 500.856 438.525 500.854 438.479 500.852L438.412 500.849C438.167 500.839 437.923 500.828 437.689 500.868C436.394 501.087 435.931 501.985 436.446 503.074C436.841 503.907 437.571 503.891 438.306 503.875C438.408 503.873 438.51 503.871 438.611 503.871C451.255 503.874 463.899 503.874 476.628 503.874ZM421.8 101.276C422.064 101.249 423.305 101.442 424.834 101.68C426.926 102.006 429.558 102.415 430.969 102.461C432.383 102.506 431.041 104.02 430.808 104.03C427.689 104.163 420.928 102.103 421.8 101.276ZM426.355 113.219C425.035 112.719 425.666 108.672 426.976 108.672C428.27 108.672 427.645 113.707 426.355 113.219ZM407.324 484.297C408.467 486.888 408.389 487.948 407.029 489.357C406.1 490.32 404.417 490.483 403.362 489.713C402.235 488.891 401.713 486.948 402.256 485.6C403.212 483.229 405.313 482.649 407.324 484.297ZM284.99 484.496C283.216 482.853 281.448 482.945 279.277 485.073C278.487 486.903 278.874 488.843 281.805 489.359C283.384 489.638 284.319 489.172 285.191 488.227C286.098 487.243 285.839 485.281 284.99 484.496Z" fill="#00160A"/>
<path fill-rule="evenodd" clip-rule="evenodd" d="M387.961 154.479C385.322 153.704 384.696 149.702 382.034 149.011C379.401 148.327 376.871 151.446 374.245 150.733C372.459 150.249 371.625 148.278 370.637 146.715C369.675 145.193 367.649 143.821 366.202 144.802L366.083 144.89C364.076 146.472 361.066 145.472 359.045 143.907C357.023 142.343 355.31 140.233 352.883 139.428C354.157 138.171 356.364 139.083 357.598 140.381C358.832 141.678 359.835 143.388 361.549 143.907C364.175 144.702 367.133 142.263 369.611 143.44C371.153 144.171 371.779 145.979 372.702 147.413C373.625 148.848 375.633 150.05 376.943 148.958C380.122 146.307 385.805 147.988 387.03 151.941C387.385 153.088 388.955 154.771 387.961 154.479Z" fill="#E7EAEE"/>
<path fill-rule="evenodd" clip-rule="evenodd" d="M230.549 454.97C237.881 459.289 260.847 472.013 277.683 472.434L416.933 472.873C416.933 472.873 490.154 447.122 436.62 456.838C433.59 457.388 424.913 462.578 410.961 463.709C385.456 465.776 277.683 464.455 277.683 464.455C277.683 464.455 228.62 453.833 230.549 454.97Z" fill="#E7EAEE"/>
<path fill-rule="evenodd" clip-rule="evenodd" d="M110.96 369.301C111.131 369.111 111.34 368.975 111.469 369.029C112.935 369.636 113.781 369.108 114.226 367.66C114.3 367.419 114.677 367.271 114.914 367.08C115.131 367.37 115.532 367.66 115.533 367.951C115.536 368.917 115.955 369.371 116.873 369.658C117.264 369.781 117.496 370.407 117.8 370.804C117.494 370.875 117.032 370.849 116.914 371.037C116.674 371.418 116.549 371.909 116.512 372.365C116.482 372.752 116.676 373.152 116.71 373.552C116.755 374.077 116.67 374.462 116.052 373.933C114.818 372.877 113.746 373.273 112.692 374.269C112.436 374.51 111.986 374.548 111.626 374.68C111.692 374.352 111.711 374.006 111.831 373.699C112.46 372.088 112.026 370.705 110.96 369.301Z" fill="#00A446"/>
<path fill-rule="evenodd" clip-rule="evenodd" d="M337.32 170.473L337.932 171.417L338.134 171.722C339.416 173.603 341.364 175.452 343.53 174.904C349.295 173.445 355.853 175.991 359.122 180.957C360.738 183.412 364.327 182.93 367.261 182.301L367.649 182.217C370.591 181.564 374.661 181.871 375.405 184.723L375.443 184.887C375.786 186.529 377.853 187.028 379.555 186.985L380.082 186.966C384.36 186.966 384.92 189.319 384.921 189.077C384.921 189.077 375.516 188.364 373.536 185.174L373.415 184.971C372.154 182.762 368.971 183.122 366.48 183.873L365.795 184.087L365.451 184.187C363.02 184.868 360.069 185.115 358.849 183.017C356.049 178.203 350.216 175.343 344.693 176.075C343.272 176.263 341.798 176.663 340.437 176.212C337.181 175.134 336.756 170.106 333.552 168.881C329.51 167.335 325.596 173.21 321.413 172.101C323.957 170.16 326.778 168.581 329.764 167.428C330.765 167.041 331.827 166.697 332.892 166.826C334.864 167.066 336.189 168.761 337.32 170.473ZM388.679 176.273C388.275 177.516 387.978 178.62 387.781 179.556C387.37 176.857 384.688 174.362 382.159 175.236L382.014 175.29C380.409 175.929 378.709 174.602 377.671 173.221L377.423 172.885L377.048 172.371C376.209 171.225 375.306 170.095 373.963 169.769C371.507 169.172 369.339 171.617 366.828 171.909C361.018 172.584 358.114 162.183 352.409 163.473C351.161 163.756 350.083 164.61 348.815 164.783C345.317 165.261 343.441 160.813 340.493 158.871C338.274 157.409 335.143 157.497 333.011 159.082C333.119 156.542 336.573 155.423 338.931 156.379C341.289 157.334 342.908 159.483 344.866 161.107C346.775 162.69 349.609 163.777 351.687 162.489L351.846 162.385C354.346 160.654 357.692 162.85 359.645 165.182L360.355 166.031C362.137 168.153 364.175 170.358 366.847 170.154C369.302 169.968 371.391 167.681 373.825 168.047C377.373 168.579 378.822 174.296 382.388 173.909C384.68 173.66 387.065 174.43 388.779 175.972L388.679 176.273ZM390.521 164.313C389.948 165.115 389.374 165.759 388.798 166.246L388.606 166.402L388.127 166.059C385.794 164.402 383.247 162.79 380.411 162.857C379.376 162.881 378.315 163.131 377.321 162.839C374.682 162.065 374.055 158.063 371.394 157.371C368.76 156.687 366.23 159.806 363.605 159.094C361.819 158.61 360.985 156.638 359.996 155.075C359.035 153.554 357.008 152.181 355.562 153.163L355.443 153.25C353.436 154.832 350.426 153.833 348.404 152.268C346.383 150.703 344.669 148.594 342.242 147.789C343.516 146.531 345.724 147.444 346.958 148.741C348.191 150.039 349.195 151.748 350.909 152.267C353.535 153.062 356.492 150.624 358.971 151.8C360.512 152.532 361.139 154.339 362.062 155.774C362.984 157.208 364.992 158.411 366.302 157.319C369.482 154.667 375.164 156.348 376.389 160.302C376.745 161.449 378.272 161.715 379.451 161.485C380.63 161.255 381.842 160.741 382.987 161.102C384.444 161.561 385.191 163.255 386.595 163.857C388.055 164.484 389.801 163.687 390.778 162.426L390.877 162.294C391.663 161.193 391.295 163.228 390.521 164.313Z" fill="#00A446"/>
<path fill-rule="evenodd" clip-rule="evenodd" d="M359.922 194.464L360.361 194.593C360.951 194.773 361.394 195.039 361.912 195.477L362.167 195.702L362.492 195.997C362.65 196.14 362.773 196.248 362.898 196.351C363.76 197.057 364.735 197.495 366.363 197.754C367.455 197.927 368.225 197.753 369.552 197.135L370.03 196.907C372.175 195.872 373.421 195.584 375.432 196.046C377.15 196.441 377.939 197.105 378.58 198.357L378.742 198.688C379.049 199.329 380.04 199.921 380.821 200.389C381.407 200.739 381.876 201.019 381.852 201.197C381.795 201.613 378.169 200.941 377.448 199.502L377.292 199.179C376.823 198.213 376.395 197.827 375.092 197.527C373.563 197.176 372.636 197.359 370.928 198.162L370.451 198.392C368.718 199.224 367.657 199.498 366.125 199.255C364.231 198.954 363.005 198.403 361.935 197.526C361.86 197.465 361.788 197.404 361.712 197.338L361.076 196.765C360.63 196.367 360.327 196.172 359.917 196.047L359.666 195.971C358.605 195.661 356.177 196.467 354.407 197.054C353.297 197.423 352.446 197.705 352.354 197.573C352.155 197.286 357.808 193.896 359.922 194.464ZM359.662 206.016L360.07 206.13C360.616 206.288 361.028 206.521 361.508 206.906L361.745 207.103L362.046 207.363C362.192 207.489 362.306 207.583 362.423 207.674C363.221 208.295 364.126 208.68 365.636 208.907C366.648 209.059 367.362 208.907 368.593 208.363L369.036 208.163C371.025 207.253 372.181 207 374.046 207.406C375.639 207.753 376.37 208.337 376.965 209.437L377.116 209.728C377.4 210.291 378.319 210.812 379.043 211.222C379.587 211.53 380.021 211.777 379.999 211.933C379.947 212.299 376.584 211.708 375.916 210.443L375.771 210.159C375.336 209.31 374.939 208.971 373.73 208.708C372.312 208.399 371.452 208.56 369.869 209.266L369.426 209.467C367.82 210.199 366.836 210.44 365.415 210.226C363.658 209.962 362.521 209.478 361.529 208.707C361.46 208.654 361.393 208.6 361.323 208.542L360.733 208.038C360.319 207.688 360.038 207.517 359.658 207.407L359.425 207.34C358.441 207.067 356.19 207.776 354.549 208.292C353.519 208.616 352.73 208.864 352.645 208.748C352.46 208.496 357.702 205.517 359.662 206.016ZM360.417 218.289L360.032 218.175C358.181 217.676 353.23 220.655 353.404 220.907C353.485 221.024 354.23 220.775 355.203 220.451C356.752 219.935 358.879 219.227 359.808 219.5L360.028 219.566C360.387 219.676 360.652 219.848 361.043 220.197L361.601 220.701C361.667 220.759 361.73 220.813 361.795 220.866C362.732 221.637 363.806 222.121 365.465 222.385C366.807 222.599 367.736 222.358 369.254 221.626L369.672 221.425C371.167 220.72 371.979 220.558 373.318 220.867C374.46 221.13 374.835 221.469 375.245 222.318L375.382 222.602C376.014 223.867 379.19 224.458 379.239 224.092C379.26 223.936 378.85 223.689 378.337 223.382C377.652 222.971 376.785 222.451 376.516 221.887L376.374 221.596C375.812 220.496 375.121 219.912 373.617 219.565C371.855 219.159 370.764 219.412 368.885 220.322L368.467 220.522C367.304 221.066 366.63 221.218 365.674 221.066C364.248 220.839 363.394 220.454 362.639 219.833C362.529 219.743 362.421 219.648 362.283 219.522L361.999 219.263L361.775 219.065C361.322 218.68 360.933 218.447 360.417 218.289ZM360.032 232.616L360.417 232.729C360.933 232.887 361.322 233.121 361.775 233.505L361.999 233.703L362.283 233.963C362.421 234.089 362.529 234.183 362.639 234.274C363.394 234.894 364.248 235.279 365.674 235.506C366.63 235.659 367.304 235.506 368.467 234.963L368.885 234.762C370.764 233.853 371.855 233.599 373.617 234.005C375.121 234.352 375.812 234.937 376.374 236.036L376.516 236.328C376.785 236.891 377.652 237.411 378.337 237.822C378.85 238.13 379.26 238.376 379.239 238.533C379.19 238.898 376.014 238.307 375.382 237.042L375.245 236.759C374.835 235.91 374.46 235.571 373.318 235.307C371.979 234.998 371.167 235.16 369.672 235.866L369.254 236.067C367.736 236.798 366.807 237.039 365.465 236.826C363.806 236.561 362.732 236.077 361.795 235.307C361.73 235.253 361.667 235.199 361.601 235.141L361.043 234.637C360.652 234.288 360.387 234.117 360.028 234.007L359.808 233.94C358.879 233.667 356.752 234.375 355.202 234.892C354.23 235.216 353.485 235.464 353.404 235.347C353.23 235.095 358.181 232.117 360.032 232.616ZM361.59 247.17L361.182 247.056C359.222 246.557 353.98 249.536 354.165 249.788C354.25 249.904 355.039 249.656 356.069 249.332C357.71 248.816 359.961 248.107 360.945 248.38L361.178 248.447C361.558 248.557 361.839 248.728 362.253 249.078L362.843 249.582C362.913 249.64 362.98 249.694 363.049 249.747C364.041 250.518 365.178 251.002 366.935 251.266C368.356 251.48 369.34 251.239 370.946 250.507L371.389 250.306C372.972 249.6 373.832 249.439 375.25 249.748C376.459 250.011 376.856 250.35 377.291 251.199L377.436 251.483C378.104 252.748 381.467 253.339 381.519 252.973C381.541 252.817 381.107 252.57 380.563 252.262C379.839 251.852 378.92 251.331 378.636 250.768L378.485 250.477C377.891 249.377 377.159 248.793 375.566 248.446C373.701 248.04 372.545 248.293 370.556 249.203L370.113 249.403C368.882 249.947 368.168 250.099 367.156 249.947C365.646 249.72 364.741 249.335 363.943 248.714C363.826 248.623 363.712 248.529 363.566 248.403L363.265 248.143L363.028 247.946C362.548 247.561 362.137 247.328 361.59 247.17ZM365.325 260.418L365.746 260.458C366.312 260.519 366.758 260.678 367.297 260.973L367.565 261.127L367.907 261.33C368.072 261.429 368.201 261.502 368.332 261.571C369.226 262.043 370.184 262.265 371.71 262.227C372.734 262.201 373.41 261.927 374.528 261.178L374.929 260.904C376.73 259.663 377.825 259.212 379.732 259.288C381.36 259.354 382.183 259.802 382.959 260.781L383.158 261.042C383.536 261.548 384.531 261.901 385.316 262.179C385.905 262.388 386.375 262.555 386.381 262.713C386.393 263.082 382.979 263.084 382.1 261.955L381.908 261.701C381.333 260.94 380.883 260.675 379.647 260.625C378.197 260.567 377.378 260.876 375.941 261.846L375.54 262.121C374.085 263.12 373.158 263.528 371.721 263.564C369.946 263.609 368.742 263.33 367.631 262.743L367.399 262.617L366.731 262.222C366.262 261.95 365.956 261.83 365.563 261.788L365.321 261.763C364.305 261.665 362.211 262.753 360.684 263.547C359.727 264.045 358.993 264.426 358.889 264.326C358.663 264.11 363.309 260.266 365.325 260.418ZM374.912 270.259L374.575 270.291C372.963 270.479 369.759 274.023 369.963 274.149C370.058 274.208 370.592 273.816 371.288 273.304L371.288 273.304C372.398 272.488 373.92 271.368 374.735 271.29L374.928 271.272C375.244 271.245 375.501 271.289 375.904 271.421L376.48 271.613L376.678 271.673C377.627 271.943 378.612 271.971 380.009 271.673C381.14 271.432 381.823 270.991 382.851 270.033L383.135 269.769C384.152 268.836 384.762 268.485 385.914 268.312C386.897 268.164 387.284 268.294 387.831 268.773L388.014 268.933C388.844 269.64 391.541 269.13 391.487 268.858C391.464 268.741 391.072 268.688 390.581 268.62C389.927 268.531 389.099 268.417 388.739 268.098L388.55 267.934C387.818 267.323 387.114 267.113 385.819 267.307C384.304 267.535 383.493 268.032 382.221 269.221L381.937 269.485C381.145 270.207 380.644 270.511 379.838 270.682C378.637 270.938 377.854 270.916 377.09 270.699C376.978 270.667 376.868 270.632 376.725 270.584L376.43 270.483L376.2 270.41C375.738 270.27 375.367 270.219 374.912 270.259ZM382.935 277.131L383.272 277.099C383.727 277.059 384.098 277.11 384.56 277.25L384.79 277.323L385.085 277.424C385.228 277.472 385.338 277.507 385.45 277.539C386.214 277.756 386.997 277.778 388.198 277.522C389.004 277.351 389.505 277.047 390.297 276.325L390.581 276.061C391.853 274.872 392.664 274.375 394.179 274.147C395.474 273.953 396.178 274.163 396.91 274.774L397.099 274.938C397.459 275.257 398.287 275.371 398.941 275.46C399.432 275.528 399.824 275.581 399.847 275.698C399.901 275.97 397.204 276.48 396.374 275.773L396.191 275.613C395.644 275.134 395.257 275.004 394.274 275.152C393.122 275.325 392.512 275.676 391.495 276.609L391.211 276.873C390.183 277.831 389.5 278.272 388.369 278.513C386.972 278.811 385.987 278.783 385.038 278.513L384.84 278.453L384.264 278.261C383.861 278.128 383.604 278.085 383.288 278.112L383.095 278.13C382.28 278.208 380.758 279.328 379.648 280.144L379.648 280.144C378.952 280.656 378.418 281.048 378.323 280.989C378.119 280.863 381.323 277.319 382.935 277.131ZM393.972 284.493L393.707 284.567C392.445 284.944 390.383 288.229 390.564 288.301C390.648 288.335 391.019 287.946 391.504 287.439C392.276 286.63 393.335 285.52 393.975 285.342L394.128 285.301C394.376 285.235 394.588 285.234 394.928 285.282L395.416 285.355L395.583 285.375C396.379 285.457 397.171 285.34 398.246 284.905C399.116 284.554 399.599 284.105 400.286 283.194L400.476 282.943C401.158 282.053 401.596 281.687 402.492 281.386C403.257 281.13 403.585 281.179 404.09 281.484L404.258 281.587C405.022 282.035 407.106 281.247 407.024 281.037C406.989 280.947 406.668 280.96 406.267 280.975C405.731 280.995 405.053 281.021 404.72 280.817L404.546 280.713C403.875 280.327 403.283 280.259 402.275 280.597C401.095 280.992 400.518 281.504 399.668 282.633L399.479 282.884C398.947 283.573 398.589 283.887 397.969 284.138C397.045 284.511 396.416 284.604 395.774 284.538C395.681 284.529 395.588 284.516 395.467 284.498L395.217 284.459L395.022 284.432C394.634 284.386 394.33 284.398 393.972 284.493ZM402.154 290.707L402.419 290.634C402.777 290.538 403.081 290.527 403.47 290.573L403.664 290.599L403.914 290.638C404.035 290.656 404.128 290.669 404.221 290.679C404.863 290.745 405.492 290.652 406.416 290.278C407.036 290.027 407.394 289.714 407.926 289.025L408.115 288.774C408.965 287.644 409.542 287.133 410.722 286.737C411.73 286.399 412.322 286.468 412.993 286.853L413.167 286.958C413.5 287.162 414.178 287.136 414.714 287.115C415.115 287.1 415.436 287.088 415.471 287.178C415.553 287.387 413.469 288.175 412.705 287.727L412.537 287.625C412.032 287.319 411.704 287.27 410.939 287.527C410.043 287.827 409.605 288.194 408.923 289.083L408.733 289.334C408.046 290.245 407.563 290.694 406.693 291.046C405.618 291.481 404.826 291.597 404.03 291.515L403.863 291.496L403.375 291.423C403.035 291.374 402.823 291.376 402.575 291.442L402.422 291.483C401.782 291.66 400.723 292.77 399.951 293.579C399.466 294.086 399.095 294.475 399.011 294.442C398.83 294.369 400.892 291.085 402.154 290.707ZM412.299 296.714L412.034 296.787C410.772 297.165 408.71 300.449 408.891 300.522C408.975 300.555 409.346 300.166 409.831 299.659C410.603 298.85 411.662 297.74 412.302 297.563L412.455 297.522C412.703 297.456 412.915 297.454 413.255 297.503L413.743 297.576L413.91 297.595C414.706 297.677 415.498 297.561 416.573 297.126C417.443 296.774 417.926 296.325 418.613 295.414L418.803 295.163C419.485 294.274 419.923 293.907 420.819 293.607C421.584 293.35 421.912 293.399 422.417 293.705L422.585 293.807C423.349 294.255 425.433 293.467 425.351 293.258C425.316 293.168 424.995 293.18 424.594 293.195C424.058 293.216 423.38 293.242 423.047 293.038L422.873 292.933C422.202 292.548 421.61 292.479 420.602 292.817C419.422 293.213 418.845 293.724 417.995 294.854L417.806 295.105C417.274 295.794 416.916 296.107 416.296 296.358C415.372 296.732 414.743 296.825 414.101 296.759C414.008 296.749 413.915 296.736 413.794 296.718L413.544 296.679L413.349 296.653C412.961 296.607 412.657 296.618 412.299 296.714Z" fill="#00A446"/>
</svg>
