<svg width="102" height="40" viewBox="0 0 102 40" fill="none" xmlns="http://www.w3.org/2000/svg">
<path d="M49.9596 13.0644C49.3716 13.0644 48.8143 12.9357 48.2875 12.6785C47.7608 12.4212 47.2524 12.1272 46.7624 11.7965C46.2724 11.4535 45.813 11.1534 45.3843 10.8961C44.9678 10.6389 44.5819 10.5103 44.2267 10.5103C43.8224 10.5103 43.5529 10.7124 43.4182 11.1166C43.2834 11.5086 43.2896 11.9925 43.4366 12.5682H40.6436C40.3006 11.0983 40.3864 9.8549 40.9009 8.83816C41.4276 7.80917 42.4015 7.29468 43.8224 7.29468C44.4104 7.29468 44.9678 7.4233 45.4945 7.68055C46.0335 7.93779 46.5419 8.23792 47.0196 8.58091C47.5096 8.91166 47.9629 9.20565 48.3794 9.4629C48.8081 9.72015 49.2062 9.84877 49.5737 9.84877C49.9535 9.84877 50.2169 9.65277 50.3639 9.26078C50.5231 8.85653 50.517 8.36041 50.3455 7.77242H53.1385C53.5059 9.23015 53.4263 10.4796 52.8996 11.5209C52.3728 12.5499 51.3928 13.0644 49.9596 13.0644ZM51.6685 35.8491V26.2942C51.6685 25.6695 51.6256 24.9773 51.5398 24.2178C51.4541 23.4584 51.252 22.7295 50.9335 22.0312C50.6272 21.3208 50.1617 20.7389 49.537 20.2856C48.9245 19.8324 48.0915 19.6058 47.038 19.6058C46.4745 19.6058 45.9172 19.6977 45.3659 19.8814C44.8147 20.0651 44.3124 20.3836 43.8592 20.8369C43.4182 21.2779 43.0629 21.8904 42.7935 22.6744C42.524 23.4461 42.3892 24.4383 42.3892 25.6511L39.7616 24.5302C39.7616 22.8397 40.0862 21.3085 40.7355 19.9365C41.397 18.5645 42.3647 17.4743 43.6387 16.6658C44.9127 15.8451 46.4807 15.4347 48.3426 15.4347C49.8126 15.4347 51.0254 15.6797 51.9808 16.1697C52.9363 16.6597 53.6958 17.2844 54.2593 18.0439C54.8228 18.8034 55.2393 19.6119 55.5088 20.4694C55.7783 21.3269 55.9498 22.1415 56.0233 22.9132C56.109 23.6727 56.1519 24.2913 56.1519 24.7691V35.8491H51.6685ZM37.9058 35.8491V16.0043H41.8563V22.1599H42.3892V35.8491H37.9058Z" fill="#333333"/>
<path d="M68.9031 36.4003C67.0779 36.4003 65.4854 35.941 64.1257 35.0222C62.766 34.1035 61.7125 32.854 60.9652 31.2738C60.218 29.6935 59.8444 27.9112 59.8444 25.9267C59.8444 23.9177 60.218 22.1292 60.9652 20.5613C61.7247 18.981 62.7966 17.7377 64.1808 16.8312C65.5651 15.9124 67.1943 15.4531 69.0685 15.4531C70.955 15.4531 72.5352 15.9124 73.8092 16.8312C75.0954 17.7377 76.0693 18.981 76.7308 20.5613C77.3923 22.1415 77.723 23.93 77.723 25.9267C77.723 27.8989 77.3923 29.6813 76.7308 31.2738C76.0693 32.854 75.0832 34.1035 73.7725 35.0222C72.4617 35.941 70.8386 36.4003 68.9031 36.4003ZM69.583 32.4314C70.7712 32.4314 71.7267 32.1619 72.4495 31.6229C73.1845 31.0716 73.7173 30.306 74.0481 29.326C74.3911 28.346 74.5626 27.2129 74.5626 25.9267C74.5626 24.6282 74.3911 23.4951 74.0481 22.5274C73.7173 21.5474 73.1967 20.7879 72.4862 20.2489C71.7757 19.6977 70.857 19.422 69.73 19.422C68.5418 19.422 67.5618 19.716 66.79 20.304C66.0183 20.8798 65.4487 21.6638 65.0812 22.656C64.7137 23.636 64.5299 24.7262 64.5299 25.9267C64.5299 27.1394 64.7076 28.2419 65.0628 29.2342C65.4303 30.2141 65.9877 30.992 66.7349 31.5678C67.4822 32.1435 68.4315 32.4314 69.583 32.4314ZM74.5626 35.8491V21.921H74.0113V9.3894H78.4764V35.8491H74.5626Z" fill="#333333"/>
<path d="M92.6502 36.4003C90.6413 36.4003 88.8773 35.9655 87.3583 35.0957C85.8393 34.226 84.6511 33.0194 83.7936 31.4759C82.9484 29.9324 82.5257 28.1562 82.5257 26.1472C82.5257 23.979 82.9422 22.0986 83.7752 20.5061C84.6082 18.9014 85.7658 17.6581 87.2481 16.7761C88.7303 15.8941 90.4453 15.4531 92.393 15.4531C94.451 15.4531 96.1966 15.9369 97.6298 16.9047C99.0753 17.8602 100.147 19.2138 100.845 20.9655C101.544 22.7172 101.807 24.7813 101.636 27.1578H97.2439V25.5408C97.2317 23.3849 96.8519 21.8107 96.1047 20.8185C95.3575 19.8263 94.1815 19.3302 92.5767 19.3302C90.7638 19.3302 89.4163 19.8936 88.5343 21.0206C87.6523 22.1354 87.2113 23.7707 87.2113 25.9267C87.2113 27.9357 87.6523 29.4914 88.5343 30.5939C89.4163 31.6964 90.7025 32.2476 92.393 32.2476C93.4832 32.2476 94.4203 32.0087 95.2043 31.531C96.0006 31.041 96.6131 30.3366 97.0418 29.4179L101.415 30.7409C100.656 32.5294 99.4795 33.9197 97.8871 34.912C96.3068 35.9042 94.5612 36.4003 92.6502 36.4003ZM85.8148 27.1578V23.8136H99.4673V27.1578H85.8148Z" fill="#333333"/>
<path fill-rule="evenodd" clip-rule="evenodd" d="M13.301 1.52373C13.753 1.31593 14.2879 1.51387 14.4957 1.96584C14.6764 2.35884 14.828 2.67752 14.9538 2.93339C15.1358 3.11428 15.2743 3.33203 15.3654 3.49595C15.4601 3.66645 15.5489 3.86165 15.5974 4.02728C15.6096 4.06914 15.6285 4.13982 15.6385 4.22337C15.6433 4.26407 15.6498 4.33719 15.6418 4.42656C15.6356 4.49555 15.6119 4.69651 15.4628 4.89578C15.2639 5.16158 14.9496 5.28434 14.6492 5.25563C14.6233 5.25316 14.5984 5.24966 14.5744 5.24534C14.5335 5.70486 14.1475 6.0651 13.6773 6.0651C13.1799 6.0651 12.7766 5.66183 12.7766 5.16437C12.7766 4.54631 12.8145 4.0614 12.8974 3.6961C12.9355 3.52818 12.9905 3.35132 13.077 3.18706C13.0088 3.04239 12.9362 2.8864 12.8589 2.71837C12.6511 2.26639 12.8491 1.73154 13.301 1.52373Z" fill="#00A446"/>
<path fill-rule="evenodd" clip-rule="evenodd" d="M24.1096 0.0825715C24.5616 -0.125232 25.0965 0.0727061 25.3043 0.52468C25.485 0.917679 25.6366 1.23636 25.7624 1.49223C25.9444 1.67312 26.0829 1.89086 26.174 2.05479C26.2687 2.22529 26.3575 2.42049 26.406 2.58612C26.4182 2.62798 26.4371 2.69866 26.4471 2.78221C26.4519 2.82291 26.4584 2.89603 26.4504 2.9854C26.4442 3.05439 26.4205 3.25534 26.2714 3.45461C26.0725 3.72042 25.7582 3.84318 25.4578 3.81447C25.4319 3.812 25.407 3.8085 25.383 3.80418C25.3421 4.2637 24.9561 4.62394 24.4859 4.62394C23.9884 4.62394 23.5852 4.22067 23.5852 3.72321C23.5852 3.10515 23.6231 2.62024 23.706 2.25493C23.7441 2.08702 23.7991 1.91016 23.8856 1.7459C23.8174 1.60123 23.7448 1.44524 23.6675 1.2772C23.4597 0.825231 23.6577 0.290376 24.1096 0.0825715Z" fill="#00A446"/>
<path fill-rule="evenodd" clip-rule="evenodd" d="M0.666094 26.7328H0.0632462C0.0481439 26.4665 0.13353 26.2041 0.27242 25.9571C0.412878 25.7074 0.617532 25.4563 0.865682 25.2069C1.84907 24.2189 3.66583 23.1141 5.61531 22.0889C7.57526 21.0582 9.70528 20.09 11.3433 19.3801C12.1627 19.025 12.86 18.7341 13.3526 18.5319C13.5989 18.4309 13.7941 18.3519 13.9278 18.2982C13.9947 18.2714 14.0462 18.2508 14.081 18.237C14.0985 18.23 14.1117 18.2248 14.1207 18.2212L14.1308 18.2172L14.1334 18.2162L14.1341 18.2159C14.1343 18.2158 14.1344 18.2158 14.2445 18.4951C14.3545 18.7745 14.3545 18.7745 14.3544 18.7745L14.3538 18.7748L14.3514 18.7757L14.3417 18.7796L14.3284 18.7848L14.3029 18.7949C14.2687 18.8086 14.2178 18.8289 14.1516 18.8555C14.0191 18.9086 13.8254 18.987 13.5806 19.0875C13.0909 19.2884 12.3973 19.5778 11.582 19.9311C9.95057 20.6381 7.83588 21.5996 5.8948 22.6204C3.94326 23.6466 2.20265 24.7149 1.29128 25.6306C1.06574 25.8572 0.900615 26.0651 0.795816 26.2515C0.690699 26.4384 0.655631 26.5866 0.662954 26.702C0.663597 26.7121 0.664628 26.7224 0.666094 26.7328ZM14.2445 18.4951L14.3545 18.7745C14.5088 18.7137 14.5846 18.5393 14.5238 18.3851C14.463 18.2308 14.2887 18.155 14.1344 18.2158L14.2445 18.4951Z" fill="#333333"/>
<path fill-rule="evenodd" clip-rule="evenodd" d="M14.0854 26.0011C14.2023 25.9432 14.3409 25.9429 14.4583 26.0011H14.0854ZM1.0804 26.0011H0.116211C0.234285 25.7149 0.431514 25.4427 0.65705 25.193C1.05739 24.7499 1.62426 24.2933 2.28465 23.8392C3.60844 22.9289 5.37788 21.9817 7.13636 21.1269C8.8983 20.2705 10.6642 19.4997 11.9884 18.9435C12.6508 18.6652 13.2035 18.4404 13.5907 18.285C13.7844 18.2072 13.9367 18.1469 14.0408 18.1059C14.0929 18.0854 14.1329 18.0697 14.1599 18.0592L14.1907 18.0472L14.1987 18.0441L14.2007 18.0433L14.2013 18.0431C14.2014 18.043 14.2015 18.043 14.3533 18.435C14.5051 18.827 14.505 18.827 14.505 18.827L14.5045 18.8272L14.5028 18.8278L14.4954 18.8307L14.4657 18.8423C14.4393 18.8526 14.4001 18.8679 14.3489 18.8881C14.2463 18.9285 14.0957 18.9882 13.9038 19.0652C13.5201 19.2191 12.9717 19.4423 12.314 19.7185C10.998 20.2713 9.24725 21.0356 7.50387 21.883C5.75704 22.7321 4.03241 23.6576 2.76099 24.5319C2.12378 24.9701 1.61775 25.3837 1.28086 25.7566C1.20178 25.8441 1.13551 25.9256 1.0804 26.0011ZM14.3533 18.435L14.2015 18.043C14.418 17.9592 14.6614 18.0667 14.7452 18.2832C14.8291 18.4997 14.7215 18.7431 14.5051 18.827L14.3533 18.435Z" fill="#333333"/>
<path fill-rule="evenodd" clip-rule="evenodd" d="M33.1029 25.4007H30.7772C30.9086 25.3546 31.0402 25.3077 31.1716 25.2599C32.6421 24.7256 34.0726 24.0951 35.1035 23.4015C35.6193 23.0545 36.0141 22.7054 36.2658 22.3628C36.5148 22.0241 36.6077 21.7157 36.574 21.426C36.5431 21.1601 36.3752 20.8929 36.0037 20.6268C35.6301 20.3592 35.091 20.1238 34.4159 19.9237C33.0685 19.5242 31.286 19.2952 29.4883 19.1705C27.6964 19.0463 25.9138 19.0274 24.5774 19.0396C24.1239 19.0438 23.7224 19.0515 23.3899 19.06L25.4248 20.9048C25.5968 21.0608 25.6098 21.3266 25.4538 21.4986C25.2979 21.6706 25.0321 21.6836 24.8601 21.5276L22.0574 18.9867C21.8855 18.8308 21.8724 18.5649 22.0284 18.3929L24.5693 15.5903C24.7253 15.4183 24.9911 15.4053 25.1631 15.5612C25.335 15.7171 25.3481 15.983 25.1921 16.1549L23.3192 18.2208C23.6651 18.2118 24.0886 18.2034 24.5697 18.199C25.9187 18.1866 27.7249 18.2056 29.5465 18.3319C31.3623 18.4578 33.218 18.6917 34.6549 19.1177C35.3719 19.3303 36.0115 19.5983 36.4932 19.9433C36.9771 20.2899 37.3412 20.7447 37.4091 21.3289C37.4743 21.8893 37.2774 22.4061 36.9433 22.8607C36.612 23.3114 36.1307 23.7236 35.5728 24.099C34.8704 24.5716 34.0134 25.0075 33.1029 25.4007Z" fill="#333333"/>
<path fill-rule="evenodd" clip-rule="evenodd" d="M20.6425 9.8855C16.599 10.6379 11.788 15.4194 9.03563 29.0616C8.42923 32.0672 9.76077 34.5293 12.1287 36.1631C14.5244 37.816 17.9363 38.5695 21.2293 38.022C24.4992 37.4784 27.6005 35.663 29.4682 32.2301C31.3391 28.7912 32.041 23.6001 30.2306 16.1856C28.688 12.2797 24.6873 9.13282 20.6425 9.8855ZM20.3129 8.11445C25.527 7.14419 30.2152 11.1708 31.9308 15.5869L31.952 15.6414L31.9659 15.6982C33.8608 23.4151 33.21 29.1219 31.0506 33.091C28.8832 37.0748 25.266 39.1771 21.5248 39.7991C17.8067 40.4172 13.915 39.5842 11.1056 37.6458C8.26838 35.6882 6.49328 32.5539 7.26977 28.7053C10.0419 14.9655 15.0789 9.08842 20.3129 8.11445Z" fill="#00A446"/>
<path fill-rule="evenodd" clip-rule="evenodd" d="M36.1422 22.5183C35.8922 22.8107 35.5415 23.1068 35.1036 23.4014C34.0727 24.0951 32.6423 24.7256 31.1717 25.2599C29.7068 25.7922 28.2265 26.2204 27.1106 26.5158C26.5531 26.6634 26.0877 26.7775 25.7622 26.8547C25.5994 26.8932 25.4716 26.9225 25.3849 26.9421C25.3415 26.9519 25.3083 26.9593 25.2862 26.9642L25.2613 26.9697L25.2552 26.971L25.2538 26.9713L25.2535 26.9714C25.2535 26.9714 25.2535 26.9714 25.2632 27.0163L25.2535 26.9714C25.0266 27.0204 24.8824 27.2442 24.9315 27.4711C24.9805 27.698 25.2042 27.8421 25.4311 27.7931L25.3423 27.3822C25.4311 27.7931 25.4312 27.7931 25.4314 27.793L25.4319 27.7929L25.4338 27.7925L25.4408 27.791C25.4469 27.7896 25.4558 27.7877 25.4675 27.7851C25.4909 27.7799 25.5254 27.7723 25.5701 27.7622C25.6595 27.742 25.7902 27.712 25.956 27.6727C26.2876 27.5941 26.7601 27.4782 27.3257 27.3285C28.4558 27.0293 29.962 26.5939 31.4588 26.05C32.9501 25.5082 34.4567 24.85 35.5729 24.0989C36.1308 23.7236 36.6121 23.3113 36.9434 22.8606C37.0246 22.7501 37.0977 22.6359 37.1609 22.5183H36.1422Z" fill="#333333"/>
<path fill-rule="evenodd" clip-rule="evenodd" d="M0.481117 25.4006C0.183784 25.7768 -0.0263086 26.1949 0.0026691 26.6296C0.0404563 27.1964 0.492914 27.5851 0.986805 27.8508C1.50218 28.128 2.20079 28.348 2.9953 28.5269C4.59069 28.8863 6.68343 29.1036 8.74955 29.2354C10.8203 29.3674 12.8833 29.4144 14.4273 29.4285C15.0437 29.4342 15.578 29.4346 15.9975 29.433L14.0672 31.4354C13.9061 31.6025 13.911 31.8686 14.0781 32.0297C14.2452 32.1908 14.5113 32.1859 14.6724 32.0188L17.298 29.2953C17.4591 29.1281 17.4543 28.862 17.2871 28.7009L14.5636 26.0753C14.3965 25.9142 14.1304 25.9191 13.9692 26.0862C13.8081 26.2533 13.813 26.5194 13.9801 26.6806L15.9633 28.5924C15.5517 28.5939 15.0323 28.5934 14.435 28.5879C12.8996 28.5739 10.8531 28.5271 8.80304 28.3964C6.74835 28.2654 4.70901 28.0512 3.18001 27.7068C2.41233 27.5339 1.80067 27.334 1.38506 27.1104C0.947966 26.8753 0.848732 26.6824 0.841483 26.5736C0.830873 26.4145 0.929458 26.1456 1.28087 25.7567C1.38472 25.6417 1.50466 25.5229 1.63955 25.4006H0.481117Z" fill="#333333"/>
</svg>
